<?xml version="1.0" encoding="UTF-8"?>
<svg id="Layer_1" xmlns="http://www.w3.org/2000/svg" version="1.1" viewBox="0 0 541.5 690">
  <!-- Generator: Adobe Illustrator 30.2.1, SVG Export Plug-In . SVG Version: 2.1.1 Build 1)  -->
  <defs>
    <style>
      .st0 {
        fill: none;
        isolation: isolate;
        opacity: .2;
        stroke: #eae0d0;
        stroke-width: .5px;
      }

      .st1 {
        fill: #eae0d0;
      }
    </style>
  </defs>
  <g id="Layer_2-2">
    <g>
      <path class="st1" d="M303.3,646.4c3.6.6,5.4-.3,7.5-3.7-.9-.4-3-1.5-4.4-.5-.8.6-.6,2.3-1.6,2.2-5.1-.4-4.3-5-9.6-2.4.7.3,1.2.6,1.1.8-.2.5-1,.5-1.6,1,1.2.7,2.4-.1,4.1,0,.9,1.9,2.5,2.2,4.5,2.5h0Z"/>
      <path class="st1" d="M200.7,640.5c-.2,0-.4,0-.6-.1-.6.1-.9.5-1.2,1-.7,0-1.6,0-2.5,0,.6-2.1,3-3,4.9-2.4.5.1.8.4.9.7-.5.3-1,.6-1.4,1h0Z"/>
      <path class="st1" d="M284.5,639.4c1.3.5,3.3-1.5,3.3-2.6,0-1.2-2.8-1.5-3.4-.5-.5.8-1,2.6.2,3Z"/>
      <path class="st1" d="M191.3,640.9c.8-1.4,3.9-1.2,3.9-.1,0,.1,0,.3-.1.4-1.3,0-2.6-.2-3.7-.3h0Z"/>
      <path class="st1" d="M280.2,634.3c0,1,3,1.1,3.5.1s-.7-1.5-1.1-1.4c-.5,0-1.6-.1-2.4,1.3h0Z"/>
      <path class="st1" d="M50.3,647.1c-.5-1-1.6-.3-1.9-.2s-.6.7-.3,1.1c.3.5.9.5,1.3.5s1.5-.5,1-1.4h0Z"/>
      <path class="st1" d="M219.2,629.6c-.5-.2-.6,1.9,0,2,.5.1,1,0,1.1-.4.2-.6-.2-1.3-1.1-1.6h0Z"/>
      <path class="st1" d="M19.3,324c0-.6-1.2-1-2.1-1.3-.8-.1-.5.5-.3.7.6.6.9,1,2.4.5Z"/>
      <g>
        <path class="st1" d="M239,377.6c-.1,1,.7.9.9.9,1.5.2,3.4-7.6,2.9-8.9-.9-3-1.2-6.2,0-9.1-.6-1.1-2.5-2.1-1.4-4.1.7.4.7,1.2,1.2,1.6.7-.7,1.2-1.3,1.9-1.4.6,0,1.2.7,2.1,1.4,2-2.2.8-5.6,1.4-8.4,1-4.5,1-21.4.7-26.8-.3-1.3-1.9-2.5-2.4-3.8-2,.5-3.8.2-5.3,1.2-.5.3.2,1.1.5,1.1,1.5.2,4.3-1.5,5.2,0,.5.8-1,2.2-1.5,2.8-1.4,1.6-6.4-1.8-5.6,2,.7,3.4.6,6.4.6,9.7,0,2.6,1.4,5,.5,7.7,1.4-.2,1.4-.8,1.8-1.1.3-.2,1.1,0,1.1.5-1,1.4-2.7,1.4-4.3,2.4.9,10.6.9,21-.4,32.1h0Z"/>
        <path class="st1" d="M4.2,583.7c-.7,1.5-1.2,3.3-1,5.3,0,1,1.6.5,2.1.7.8,2.3.9,5.2.9,7.6-1.6-.4-1.1-1.9-1.8-2.3-3.3,2.1,1,3-.5,5.4-.3.4-1.4,1-1.5.2-.2-1,1.5-1.9.5-3.2-.5-.5-1.9.5-2.9,1,.9,1.8,1.6,3.4,3.1,4.5-1.8,1.5-1,3.3-.3,5.1,0,1.6,1,1.5,1.1-.3.4-.3,3.8,1.9,5.7.2.7-.6.2-1.5-.2-3,3,0,4.9-2.2,7.2-3.8.5-.4,1.9.4,2.4.2.9-.3,2.7-4,1.6-4.7-.5-.3-1.9.2-2.9,0,1.2-5.1-1-11.2-1.1-12.8-.2-2.9,2.2-14.9.3-17-1.6,1.3.4,2.2-.5,3.8-1.6-.7,0-4.8-1.7-5.5-4.2-2,2.2,8.3,1,9.2-2.4-.7-2-3-3.3-4.1-3.3,3.2,1.2,7,.7,9.4-.6,3.1-1.5,4.5.4,7.9,1.1,1.9-2.8,5-4.4,5.7.8,1.6,2.5.7,3.4,1.4.3.3.4,1,.2,1.4-.1.3-.1.4-.8.7-.8.3-1-1.9-1.8-1.3-.5.3-.7.7-.3,1.3,1.4,1.9.5,4.4-1.6,5.1,0-1.8,1-3.2-.4-4-.5.5-.2,1.2-.1,1.5,0,.5-1.1,1-1.4.6-.2-.3-.2-1.6,0-1.9,1.9-1.8.9-4,1.3-5.9.5-2.4,2.3-4.4,1.2-7.1,1.2.1,1.6.3,2,.3.8-.1,1.2-1.5-.3-2-.5-.2-1.3.5-1.6.6-.5.1-1.7-.3-1.5-.8.4-1.4,1.9-1.5,3.3-1.5-.7-1.5-3-1.9-2.5-4.4-.9,1.5-1.1,2.9-2.1,4.9-.9-.4-.1-1.3-.8-2.3-1,1-.4,2.5.3,3.8.1,1.4-.3,1.3-1.6.1h0Z"/>
        <path class="st1" d="M184.6,352.1c.6,1.2-1.7,3-.5,4.2,1.1,1.1,1.5,3.5,3.7,2.9-1.7-11.5-3.2-23-.5-34.3.5-2.1,1-3.5,1.2-5.6.6-8.3,3.9-16,6.1-23.9,0-.9-2.1-1.7-2.8-1.9-6.2,8-11.5,39.3-10.3,47.6.6,3.8,1,7.1,3,11h0Z"/>
        <path class="st1" d="M161.8,347.2c.1-10.3,0,4.7,2.3,1.4-.2-7.9.9-34.4,3-40.5l4.9-14.1c.4-1.2-2.3-1.7-3.1-1.6-.9.2-2.1,1-2.5,2.4-4.1,13.2-6.3,18-6.4,32.8,0,3.7.3,7.1-.4,10.8-.4,2.3.7,3.9,3,4.4-1.1,1.1-2.3.9-2.2,1.8,0,1.2.3,2.4,1.3,2.5h0Z"/>
        <path class="st1" d="M196.2,340.5c0,.9.9,1.4.8,1.9,0,.5-.9,1.2-.8,1.7.3,1.5,1.9,2.3,2.7,3.9-1.5,1.5-1.3,2.7-.6,4.5.5,1.2-.9,3,.5,4.1,2.1-1.2,1.9-3.6,1.8-5.8-.9-14.4-.3-28.3,1.8-42.5.6-4,1.1-7.1,3.6-10.5.9-1.2-1.6-12.4-8.8,13.4-.5,1.7.8,3.2,1.1,4.5-3.1,2.2-2.8,10.5-1.2,11.7-2.6,2.5-1.1,5.6,0,8.3.6,1.4-.9,3.1-.7,4.9h0Z"/>
        <path class="st1" d="M169.6,338.6c0-1.1,1.5,15.6,2.4,14.5,2.1-4-.4-7.9.3-11.7l1.5-9.4c1-6.3,1.4-12.6,3.1-18.7,2.1-.6.7-2,.9-3,1.3-7.7,7.4-14.3,5.1-16.1-3.5-2.7-6,8.2-7.6,10.9-1,1.7-2.1,2.4-2.6,4.6-1.6,7.5-2.6,14.6-2.9,22.3l-.2,6.5h0Z"/>
        <path class="st1" d="M150.8,325.3c.8,7.7-.9,13.5,4.7,13l-.3-19.3c2.4-6.5,1.1-13.7,3.9-18.7-1.9-4.1,3.7-6.1.8-8.1-5.1-3.6-9.9,25.7-9.1,33.1h0Z"/>
        <path class="st1" d="M206.6,338.6l1.7,1.5,1.4-13c1.1-10.6,3.1-21,1.2-32.4-3.2,7.1-4.2,14.6-4.5,22.1l-1,21.8c-.3,1.4,1.2,2,1.3-.2h0Z"/>
        <path class="st1" d="M223.8,354.6c0,1,1.1,1.7,1.7,1.8.3,0,.2-.5.5-.9.6.3,1.5.6,1.8.3.3-.4.7-1.6.5-2-1.1-2.1,0-3.8,0-5.8-.4-8.1-1.3-15.7-1.2-23.8,0-1.8-1.9-4.6-3.8-3.3-1.8,1.2-.1,4.7-.1,6.3s-.9,2.6-.8,4.2l1.4,23.3Z"/>
        <path class="st1" d="M122.7,320.5c2.9,10.6,6.2,8.1,10.4,13.1.5.6.9,1.2,1.3,1.4.8.2,1.2-.2,1.4-.5.5-.6.5-1.9-.3-2.5-3.1-2.5-5.2-5.8-8-8.6-9.3-9.4-5.6-13.3-10.7-17l-2,3.6c1.4,2.1,1.5,4.2-.7,5.8l7.3,2.2c-.8.6-1.2.9-1.5,1.3-.4.5-.4,1.3.3,1.8.4.3,1.5-.4,2.5-.4h0Z"/>
        <path class="st1" d="M146.4,266.2c7.7-5.3-9,16.8,6.1,18.6,2.1.2,4.2,2.5,6.4.3-3.6-1.3-7.4-1.5-9.9-4.2s-1.4-6.5-.2-9.5c4.2-10.2,1.7-15.4,10-26.8-5.9-.8-6.6,9.4-8.8,14.3l-4.2,1.4c.3,2.2,1.1,4,.5,6.1h0Z"/>
        <path class="st1" d="M145.4,316.4c1.3,0,.3,2.9,1.9,2.8,2.2-.1.6-7.1,1.6-10.8,1.1-4,1.9-7.7,2.1-11.9.1-1.9.8-3.6,2.9-3.6-1.3-1.5-2.7-2.3-4.6-2.6l-4.3,17.3-1,8.7c0,.3,1.1,0,1.5,0h0Z"/>
        <path class="st1" d="M237.6,438.1c-.4-1.1-1.1-1.7-1-2.6.2-1,.9-1.8,1.9-2.9-1.7-1.3-3.6-2-5-2.8.3-3.5-1.1-5.8-1.5-9-1,0-6.5,17.7-4.6,16.3,2.9,1.8,6.8,1.5,10.1,1h0Z"/>
        <path class="st1" d="M260.6,338.9c-3.9-1.9,3.9,19.5,4.4,21.5,4.5-6.5-2.8-13.1-3.4-20.6-.3-3.3-1.4-6-2-9.1-.5-2.3,1.1-11.3-2.1-10.1-1.9.7.6,9.9,1.1,12.9.3,1.7-1.1,3.8.8,4.9.3.2.8.3,1.2.4h0Z"/>
        <path class="st1" d="M256.2,261.2l5.5-1.7c.2-1.1-.8-1.6-.2-3.2,1.7,2,3.3.4,4.2-.5,1.6-1.6,1-4-.7-5.1l1.4-3.1c-3.1-.4-6.5.2-8.5,3,.7.8,1.7.7,2.4,1.8-4.9,4.8-2.1,2-4.1,8.9h0Z"/>
        <path class="st1" d="M26.2,467.8c2,2.4,3.8-1.2,8.4-4,1.7-1,0-3.8-.2-5-.6-3.6,5.1-1.9,2.6-10.4-1.5,4.7-4.3,8.1-7.6,11.6.5-.6-4.5,6.1-3.2,7.7h0Z"/>
        <path class="st1" d="M134,262.6c.2-.7,1,4.9,6.8,6,1,.2,1.8,1,2.6.4,2.7-2,1-4.9.9-9.1-2.8-.6-9.2,0-10.2,2.7h0Z"/>
        <path class="st1" d="M202.2,285.7c-4.1.4-18.5.3-18.6.6-.1.2.6,1,.9,1l24.8,1.6c.6-2,.5-6.2-1.5-6.7-2.6-.6-5.5.9-8.4,0-.9-.3-.8,1.9,0,1.7,3-.8,5.8,0,7.4,2.6-1.8.8-2.9-.9-4.6-.8h0Z"/>
        <path class="st1" d="M259.6,391.6c3.8-.6-6.8-13.2-7.2-17.1v5.2c-.7-2.1-1.2-4.1-2.4-6.1-1.4-2.2.5-5.1-2.2-7,1.4,4.5.2,20.9,7.5,18.5,2.2,2.5,2.2,7,4.3,6.6h0Z"/>
        <path class="st1" d="M287.8,392.7c-1.3,1.7-3.8.5-5.5,1.1-2.3.8-3.4.7-5.4-1.1-3.3-3-5.2-7.3-7.3-11.5-1.2,0-1.5,1.3-2,2.2-1,1.9,5.7,9.7,8.3,11.1,4.1,2.2,8.5,2.4,11.9-1.8h0Z"/>
        <path class="st1" d="M204.6,248c-.6-5.2-5-7.3-9.1-8.6-2.8-.9-4.7-3.2-7.6-3.9-2.8,2.1,14.7,12.4,16.8,12.4h0Z"/>
        <path class="st1" d="M127.6,278.8c4,.2,3,3.5,5,2.8.9-.3,1.5-1.2.9-2.4-1.9-3.4,1.6-3.6.2-6.2-.5-.9-1.6-2.8-3-1.9-.7.4-.9,1.7-1.7,1.9-.7.1-1.1-1-2.1-1.5-1,2,.7,4.6.6,7.2h0Z"/>
        <path class="st1" d="M121.9,293c2.6,2,7-.8,8.3-3.4.5-1.1-1.3-2.3-2-2.7-.6-.3-6.8,1.1-7.2,1.6-.9,1.2-1,2.9.9,4.4h0Z"/>
        <path class="st1" d="M253.8,404.8c-.5-2.3-2.3-2.6-3.7-4.1l-5.5-8.8c-2.3,1.8-2.4,8.5.2,9.4,3.1,1.2,6.1.6,9,3.5Z"/>
        <path class="st1" d="M173.9,220.5c-4.4,2.6,22.6,17.9,25.6,19.6-7.1-8.3-17-8.5-23.8-18.9-.5-.8-1.1-1.2-1.9-.7h0Z"/>
        <path class="st1" d="M280.9,384.5c1.1,1.5,4.6,9.4,8.8,5.8-7.1-3.9-9.5-11.5-14.3-17.7.2,4.6,2.7,8.3,5.5,12h0Z"/>
        <path class="st1" d="M117.4,462.7c2.4-1.7,1.3-4.1,3.5-2.6.4.2,1.2.4,1.3-.2,0-.6,0-1.1-.6-2.3-1.1.4.3,2.2-1.7,2.1.6-4.2.7-7.7-.7-11.3,0,.1,1.2-1.6.5-1.9-2.2-.9-3.5,7.2-3.3,8.5.2,1.6,3.6,2.6,2.9,3.8-.4.7-.9.3-1.7.3-1.3,0-.9,2.1-1.2,3.2-.3.9.9,2,2,2.5.6.3.9-.4,1-.8.2-.5-.4-1-2-1.3h0Z"/>
        <path class="st1" d="M200.9,372.8c.3,3.5,6,9.4,4,6.6.3.4,2.1-.7,1.8-1.2-3.3-6-3.5-11.1-5-14.1-.2-.3-1.5,0-1.4.3.9,2.8.4,5.2.6,8.4h0Z"/>
        <path class="st1" d="M136.6,442c3.1-2.9,0-6.3,0-9.4,0-1.3,1.6-7.9.4-8.4-.6-.2-2.5-.3-2.5.7.1,5.7,0,11.2,2.1,17.1Z"/>
        <path class="st1" d="M115.6,494.5c3.2-.6,0-4.4,4.2-3.6-.7,1.1-2.3,1.3-1.7,3.4,1.8-.6,3.8-1.5,4.4-3.1.3-.7-1-1.4-1.1-1.9,0-.7.7-1.5,1.5-2.3-.4-1.3-1.5-2-2.7-3.1-1.1,1.4-2.2,2-3.7,2.9,1.2,1.6,1.8,0,3.1-.3.7,1.2-.6,1.6-.8,2.2-.6,1.3-1.7.3-2.9.5-1.6.3-2,3.1-1.7,4.6.2.7,1.1.8,1.4.7h0Z"/>
        <path class="st1" d="M19.1,320.4c.1.6,1.5.6,1.7,1.3.2.6-.9,1.7-.5,2.3.9,1.4,2.4-.3,3.3-.6,1.6-.5,2.9-12.3,3-9.6,0-.4-.4-1.2-.9-1-2.4.6.6,5.9-4.8,7.4-.3,0-.9-1-1.1-.9-.1.1-.9.3-.7,1.2h0Z"/>
        <path class="st1" d="M39.1,302.5c-.2.9-.2,1.5,0,1.8.2.4,1.6.8,1.7.2.3-2,2.3-.9,2.9-1.6,2-2.4-.2-6.8-3.1-7.4l-1.4,7h0Z"/>
        <path class="st1" d="M282,368.7c-.3,3.8,3.6,12.7,6.2,13.8.4.1,1.4-.8,1.1-1.3-3-4-3.8-8.7-7.3-12.5h0Z"/>
        <path class="st1" d="M41.2,440.6c4.5.2,5.4-8,5.4-8.3,0-1.3-1.8-.8-2.6-.4-.8.4-.2,1.6-.6,2.5-.8,1.9-2.7,3.1-2.2,6.2h0Z"/>
        <path class="st1" d="M225.6,460.9c-4.6-8.4-.8-11.2-1-20.9-2.2,3-1.7,6.6-2.2,10.2s-1.2,8.3,3.3,10.8h0Z"/>
        <path class="st1" d="M116.6,473.2c-2.4,5.8,0,3.3,1.2,7.8,1.1-.5,2-1.6,2.5-2.6.6-1.3-.4-2.5-.6-3.6,2.8.5,3.1,2.8,5.4,4.4-.6-4-2.5-7.2-4.2-11.1-2.1,0,2.7,7-.1,6.2-.8-.2,0-2-1.2-2.9-.3-.2-1.3-.6-1.3.1,0,.6.5,1.3.4,1.8,0,.3-1.1-.4-2.1-.1h0Z"/>
        <path class="st1" d="M15.6,555.4c1.4,1.2.8,5.6,1.9,4.8.4-.3,1-.7,1.1-1.2,0-.3-.9-.6-1.5-1.2,1-.8,3.1-.7,3.4-2.2.2-1,.3-2.4-.7-3.9-1.6,1.4-3.6,2.1-5.4,3.4-.8.5-.7,2.4.1,3.1,1.3-.7,0-1.9,1.1-3h0Z"/>
        <path class="st1" d="M23.8,298.2c.8,1,3.6,1.5,4.6,1.1,1.5-.6.6-2.8,0-3.7-1-1.4-2.3-1.6-3.5-1.1-1,.4-2.6,2-1.1,3.7Z"/>
        <path class="st1" d="M30.8,296.3c.5.9,1.8,1.7,2.5,1.4,3.9-1.8.4-3.2,3.1-7.8-.9-1-4.2.4-3.9,2.3.2,1.1,1.2,1.8,1,2.4-.5,1.1-2,1.1-2.7,1.6h0Z"/>
        <path class="st1" d="M264.4,454.4c2-1.9,2.4-4.5,1.4-7.2-.8-2.1.3-11.1-2.2-8.2,1-1.2.6,12.9.9,15.4h0Z"/>
        <path class="st1" d="M147,328.5c.9.6,2-1.2,2.1-2,.2-1.5-1.1-4.1-1.3-4.2-.3-.1-.8.5-1.4,1.2-5.6-17.6-1.5,2.5.6,5h0Z"/>
        <path class="st1" d="M205,341.4c-.7,3.6.6,5.7,3.5,6.5,0-2.1,1.1-4.4,0-6.3-.5-1-2.9-.2-3.6-.2h0Z"/>
        <path class="st1" d="M109.5,474.4c-1.2.5-.5,2.6.2,3.1.6.5,1.8,1.7,2.7.8,1.3-1.2,2.1-2.6,2-4.4-1.6.2-3.3-.3-4.9.5h0Z"/>
        <path class="st1" d="M280.7,399.8c-1.4.8.7.6,1.2.7,1.1.2,1.3-1.5,2.2-1.8,2.6-1.1,6.2-.9,8.1-3.4.1-1.1-1.4-2.9-2.6-3.3-.3,1.4.6,2.1,1,3.1-3.2,1.2-6.7,2.2-9.9,4.7Z"/>
        <path class="st1" d="M275,347.6c1.3,2.6.5,5.4,2.7,7.6.2-3-.2-5.7-1.6-8.5-1.8-3.6-1.2-8.2-2.7-12.4-1.9.4-.4,3.6-.6,9.3,0,2,1.5,2.5,2.2,4h0Z"/>
        <path class="st1" d="M204.2,273.3c.7,1.6-.6,3.8,1.9,4.3,0-3.3,1.6-5.6,1.1-8.4-1.8.6-2.6,1.6-4,1.7l1,2.4h0Z"/>
        <path class="st1" d="M268,286.2c0,.4-2,9.2-3.7,10.7,2.8-.3,2.6-3.3,3.2-5.4,1.5-4.8,3.5-8.9,4-14.6-3.4,2.1-3.9,5.6-3.6,9.4h0Z"/>
        <path class="st1" d="M19.9,549.9c2.9-1.1,1.9-3.7.6-5.3,1-1.5,2.9-2.3,2.4-4.7-1.2,1.1-1.7,2.1-3.2,2.5-.2,2.5-.4,4.6.3,7.5Z"/>
        <path class="st1" d="M185.3,364.4c.3,2.2,1.5,4.5,4.1,5.2l-2.1-7.9c-.9.2-2.1,1.6-2,2.6h0Z"/>
        <path class="st1" d="M122.4,272.2c-2.2-.6.2,13.4,1.6,9.4-.1-3.3-.9-6-1.6-9.4Z"/>
        <path class="st1" d="M165,267.2c.8,0,.6-1.5,1.2-1.7.5-.2,1,.8,1.3.9.6-1.3.6-3.8-.6-3.9-1.6-.2-3.9,1.2-4.7,2.6,0,.9,1.1.4,1.4.6.4.2.5,1.5,1.3,1.5h0Z"/>
        <path class="st1" d="M117.5,305.3c1.2-.8,1.8-2,2.5-3.2-.8-1-2.4-3-3.6-2-1.3,1.1-.2,3.5,1.1,5.2h0Z"/>
        <path class="st1" d="M138.6,506.3c-2-.1-.8,4.2.2,4.8.9.5,1.9.9,3.2-.5-1.1-1-1.4-2-1.7-3.3-.6-.7-1.2-.9-1.8-1Z"/>
        <path class="st1" d="M104.4,313.6c1.8,1.8,3.5.6,5.2,1,.6.2,1.1,1,1.6,1,.5,0,1.6-1.4.9-1.9-2.4-1.7-5.5-1-7.7,0Z"/>
        <path class="st1" d="M350.8,149.9c.5.8,1.9-.4,2.2-1.1.4-.9.4-2.7-.6-3.9-.6-.8-1.9.7-2.2,1.4-.4.7-.4,1.9.5,3.6Z"/>
        <path class="st1" d="M124.6,350.5c-2.2-.2,1.2,5.9,1.2,5.9.5.5,1.5.7,2.6,0-1.5-1.8-2.7-3.6-3.8-6Z"/>
        <path class="st1" d="M19.7,511.2c-1-2.2-3.4-2.4-5.4-3.7-.6,1.5.5,2.6,1.2,3.2,1.1,1.1,2.4,2.1,4.2.4Z"/>
        <path class="st1" d="M267.8,396.9c3.5.9,6.2,1.5,9.4,1.2l-4.8-1.5c-1.6-.5-3.4-1.6-4.6.3Z"/>
        <path class="st1" d="M181.8,232.1c-1.7.8,5.1,5.9,5.4,4,.8-1.1-4.7-4.3-5.4-4Z"/>
        <path class="st1" d="M203.3,312.2c.4,3,.3,5.5.8,8.4,2.3-12.3-.9-9.3-.8-8.4Z"/>
        <path class="st1" d="M107.8,484.2l3-2.8c.6-.5-.7-2.1-1.3-1.7-1.2.8-2.1,1.9-1.7,4.5Z"/>
        <path class="st1" d="M41.5,442.4c-1-.7-1.7.1-2,.8s-.7,1.8-.1,1.8c1.2.1,2.1.5,2.8,0,.9-.7.4-2-.6-2.7h0Z"/>
        <path class="st1" d="M272.1,360.9c2.5-.5.7-2.5.9-4.1.2-1.2,2.4-2.2,0-3.3-.9,2.2-.5,4.7-1,7.4h0Z"/>
        <path class="st1" d="M254.7,276.9c1.3.7,3,.8,4.4.2.5-.8-.6-1.6-1.1-1.7-1.1-.2-2.6-.8-3.3,1.5h0Z"/>
        <path class="st1" d="M101.1,251.5l4.1-1.4c.2-1.9-1.4-1.8-2.4-1.3-.6.2-1.9.3-1.7,2.7Z"/>
        <path class="st1" d="M20.5,511.1c.8,1,3.2.1,3.1-1.2s-1.4-1.6-2-1c-.5.4-1.8,1.3-1,2.2Z"/>
        <path class="st1" d="M263.5,434.9c1.8-2.8-.2-4.9-1.2-7.1,0,2.6.1,4.6,1.2,7.1Z"/>
        <path class="st1" d="M6.5,572.5c1.8-.7,2.1-2.6,1.2-4.5-2.1.6-2.4,2.5-1.2,4.5Z"/>
        <path class="st1" d="M116.9,290.8c0,.6,1.7,0,2.3-.4,1.1-.7-.6-1.4-1.1-2.2-1.2-2.1-.9-4.4-2.7-6.5-.8,4.5,3.4,6.8,1.5,9.1Z"/>
        <path class="st1" d="M114.7,469.6c-1,.7-4.9-5.2-3.8-1,.1.4-.2,1.2.4,1.6.7.4,1.3-.6,2.6-.5-.4.4-1.1,2.2-.3,2,2.1-.4,2.8-3,2.5-4.7-1.1.9-.8,2.1-1.4,2.6Z"/>
        <path class="st1" d="M197,276.5c.7.7.9.5.7-.5.6-1.3.3-2.1-.8-2.2-.7,0-1.5.4-1.8,1.1-.5,1.1.8,1.4,1.8,1.7h0Z"/>
        <path class="st1" d="M187.6,373c.7.6,1.2.9,1.7,1.1.6.2,1-.3.9-.7,0-.6-.4-1.4-.9-1.7-.7-.4-1.1-.5-2-.1-.4.1-.7.7.2,1.4h0Z"/>
        <path class="st1" d="M262.2,459.4c2.4.6,3.7-1.1,4.9-2.6-2.1.2-4.1.3-4.9,2.6Z"/>
        <path class="st1" d="M258.6,457.7c-.9,0-9.5-.4-7.3,1,2.8.3,5,0,7.3-1Z"/>
        <path class="st1" d="M138.4,372.3c-.4,3.7,3.6,2.6,1.2,6.8-.4.7,1.1,2.2,1.7,1.4,1.9-2.8-.8-6.2-2.9-8.2Z"/>
        <path class="st1" d="M174.5,270.1c-.4.9.9,1.2,1.3,1,.6-.2,2-.6,1.6-1.6s-2.3-.8-2.9.5h0Z"/>
        <path class="st1" d="M70,424.5c1.6,0,2.2-2.2,1.3-3.9-.6,1.1-1.1,1.8-1.3,3.9Z"/>
        <path class="st1" d="M240.8,464.1c2,.4,3.8.4,5.9,0-1.9-1.5-3.9-1.6-5.9,0Z"/>
        <path class="st1" d="M338.6,177.3c0,.4,1.4.8,1.7.5.6-.5.4-1.7,0-3-.8,0-1.8,1.3-1.7,2.5h0Z"/>
        <path class="st1" d="M252.4,249.7c0,.7,1.6,1.2,2.1,1,.8-.2,1.7-1.9.7-2.4-.7-.3-2.7.4-2.8,1.3Z"/>
        <path class="st1" d="M107.6,490.6c-.2,1,1.5.7,1.7.1.2-.9.8-2-.2-3.2-.4.6-1.3,1.3-1.5,3h0Z"/>
        <path class="st1" d="M173.2,362.4c1.9-.2.6-2.7.2-4.2l-1.2-4.2c-2.6,2.2,1,2.9,1,8.4h0Z"/>
        <path class="st1" d="M282.3,166.1c1.5.8,3,1.5,5.1.9-.9-1.6-2.5-1.6-5.1-.9Z"/>
        <path class="st1" d="M64.9,363.1c2.1-.9,1.2-2.5.3-4.9-.8,1.5-.3,3-.3,4.9Z"/>
        <path class="st1" d="M244.3,362.9c1.6-.9,2.1-3.5.2-5.4l-.2,5.4Z"/>
        <path class="st1" d="M21.8,604.4c.6-.2,1.4-.4,1.7-.7.5-.7-.1-1.2-.5-1.4-.8-.5-1.7.2-1.9,1,0,.3-.4.9-.3,1.2.1.2.4.2,1,0Z"/>
        <path class="st1" d="M194.5,283c-.5,1,1.5,1.1,1.9.5.3-.4,2.1-.3,1-1.4-.5-.5-2.5,0-3,.9h0Z"/>
        <path class="st1" d="M205.8,278.3c-.6-.9-1.8.5-2,1.1s.8,1,1.4,1.4c.5.3,1.4-1.1.6-2.4Z"/>
        <path class="st1" d="M28.6,303.8c-.5-.6-1.1.3-1.3.6-.5.4-.8.9-.2,1.3s1.1.7,1.3.4c.4-.7,1-1.3.2-2.2h0Z"/>
        <path class="st1" d="M84.9,258.4c1.9.7,3.2-.2,4.5-.9-1.9-.7-3.2.1-4.5.9Z"/>
        <path class="st1" d="M137,515.9c.5.5.7.9.9,1,.6.2.7,0,.7-.3.1-.6,0-1.1-.8-1.6-1.1-.4-2,0-.9.9h0Z"/>
        <path class="st1" d="M174.5,305.5c.9-2.7,1.9-5,2.5-8.6-1.4,2.4-3,5.2-2.5,8.6Z"/>
        <path class="st1" d="M260.8,303.8c1-.4,1.6-1.4,1.9-2.6-1.4-.3-2.3.7-1.9,2.6Z"/>
        <path class="st1" d="M246.1,240.7c-.5-.3-2.1,1.7-1.5,1.8,1,0,1.4.2,1.8,0,.4-.2.5-1.1-.3-1.7h0Z"/>
        <path class="st1" d="M114.8,466.6c.4.4.6-1,.4-1.6-.1-.4-1.6-.1-1.5-1.5-.8-.7-.7.5-.7.8,0,.8.6,1.3,1.8,2.3h0Z"/>
        <path class="st1" d="M112.5,305.9c.4.5,1.6.3,2,0,.5-.5,1.3-1.1.4-1.8-1,.9-2.4.9-2.4,1.9h0Z"/>
        <path class="st1" d="M18.9,522.6c.9.2,3-2.1,1.3-2.6-.6-.2-1.5,1.9-1.3,2.6Z"/>
        <path class="st1" d="M8.3,561c.7.5.9.5,1,0,.3-1.2-.5-2-1-2.2-.2,0-.6.4-.8.5-.6.5,0,1,.8,1.6Z"/>
        <path class="st1" d="M257.5,347.2c.5-1.6.5-3.1,0-5.1-.7,1.3-.7,2.7,0,5.1Z"/>
        <path class="st1" d="M251.5,267.6c-.1.7,2.8.7,2.7-.3,0-1.5-2.5-1-2.7.3Z"/>
        <path class="st1" d="M140.8,280.9c.5-1.6.5-3.1,0-5.1-.7,1.3-.7,2.7,0,5.1Z"/>
        <path class="st1" d="M122,494c1-.1,2-.5,3-1.5-1.2-1.4-2.4-.2-3,1.5Z"/>
        <path class="st1" d="M65.3,317c.5-1.8-.4-2.8-.9-4.5-.9,1.4,0,3.1.9,4.5Z"/>
        <path class="st1" d="M284.6,176.5c.3-.4,2-.7,2-1.2,0-1.3-1.1-1-1.5-.5-.4.4-1.2.9-.5,1.8Z"/>
        <path class="st1" d="M200.8,279.4c-.2,2,1.5,2.2,1.6.4,0-1.1-.9-1.6-1.6-.4Z"/>
        <path class="st1" d="M170.5,619.9c-.4-1.4-1.5,0-1.4.4.1.4-1.1.7-.3,1.2.6.4,2-.6,1.7-1.6h0Z"/>
        <path class="st1" d="M201.9,276.4c0-.8-.9-.3-1.1-.2-.4.2-.8.9-.4,1.3.2.2.4.5.8.5s.8-.6.7-1.6h0Z"/>
        <path class="st1" d="M162.6,285.8c-.3-.7-1.7-.6-2.8-1.3-.8.3-.5.6-.2.9.5.6.9,1,3.1.5Z"/>
        <path class="st1" d="M256.8,341.4c.5-1.3.5-2.6,0-4.4-.7,1-.7,2.2,0,4.4Z"/>
        <path class="st1" d="M189.2,267.3c.6,1.1,1.1.4.9-.7.1-.7.1-1.3-.3-1.5-.4-.2-.9,0-1.1.4s.3.8.6,1.8h0Z"/>
        <path class="st1" d="M252.9,407.1c0,.7.8,1.2,1.4.9.9-.5,1.9-.9,1.1-1.6-.3-.3-1.1.9-2.5.7h0Z"/>
        <path class="st1" d="M40.9,290.7c-.2,2.1,1.5,2.4,1.7.6,0-1.2-1-1.9-1.7-.6Z"/>
        <path class="st1" d="M32.4,556.3c2.2-.3,2.7-.7.9-1.3-1.4-1.3-2.4.3-.9,1.3Z"/>
        <path class="st1" d="M117.1,447.3c.2-1.3.5-2.7,0-4.4-.7,1-.7,2.3,0,4.4Z"/>
        <path class="st1" d="M238.3,437.6c.7.7,1.9.6,2.8-.8-.7-.7-1.9-.6-2.8.8Z"/>
        <path class="st1" d="M263.4,436.5c0,1.9,1.7,1.9,1.7,0,0-1.1-1.6-1.1-1.7,0Z"/>
        <path class="st1" d="M84.4,308.3c1.1-.3,1.8-1.6,1-2.7-.6,0-1.7.9-1,2.7Z"/>
        <path class="st1" d="M124,267c1,.6,1.6,0,1-.6s-.9-.9-2.2-.7c-.9.6.4.5,1.2,1.2Z"/>
        <path class="st1" d="M244.2,239.9c1-.4,1.4-1.2,2.1-2-1.2-.4-2.3,0-2.1,2Z"/>
        <path class="st1" d="M256,254.5c0-.4-1.1-.2-1.4-.2s-.6.5-.5,1.1c0,.3.9.5,1.2.3.2-.1.7-.3.8-1.2h0Z"/>
        <path class="st1" d="M90.2,257.2c1.1,0,1.8-.8,2.7-1.1-1.2-.7-2.4-.6-2.7,1.1Z"/>
        <path class="st1" d="M243.9,278.9c.5,1.1,1,.1,1.3-.2.5-.7.6-1.8-.2-2.1-.3.5-.2,1.2-1.1,2.2Z"/>
        <path class="st1" d="M25.6,572.7c0-.4-1.2-.2-1.5-.2s-.5.5-.4,1c0,.4.8.5,1,.4.2-.1.8-.3.8-1.2Z"/>
        <path class="st1" d="M7.6,548.8c.2-1.3,1-2.1.6-3.2-1.6.7-1.3,2-.6,3.2Z"/>
        <path class="st1" d="M132.8,494.2c-.5-.2-.6,1.9,0,2,.5.1,1,0,1.1-.4.2-.6-.2-1.3-1.1-1.6h0Z"/>
        <path class="st1" d="M117.8,483.5c0-.4-1.2-.2-1.4-.2s-.5.5-.4,1c0,.4.7.5,1,.4.3-.1.8-.3.8-1.2Z"/>
        <path class="st1" d="M27.5,472.1c-.6-.6-1.2-.5-1.5,0-.3.5,0,1.2,1,1.1.5,0,1.6,0,.5-1.1h0Z"/>
        <path class="st1" d="M239.2,435.5c1,.6,1.6,0,1-.5s-.9-.9-2.1-.7c-1,.6.2.5,1.1,1.2h0Z"/>
        <path class="st1" d="M10.9,500.4c-1.1.5-2.5.1-3.1,1.4,3,1.9,6.8.5,9.3,1.8,2.5,5.2,13.5,5.2,14.3,3.6.4-.8.1-1.9-.5-3.2,2-.1,3.4-1.4,3.6-3.6,1.1-.9,2.5-.9,3.4-2,.3,2.6-2.2,4.4-.4,7.1,2.5-5.5,2.3-11.2,1.3-16.6-1.9.8-1.3,2.1-2.3,3.2l-4.3-1.5c1.4-2,3.2-3,4.8-4.2,1.9-1.4,1-4.6,2-6,1.5-2.2,3.3-4,1.9-7,2.1-.4,2.8-1.7,3.7-2.8,1.2-1.4.7-2.9-.1-4.7,1-.9,1.6-1.9,2.2-3.2l1.5,2c.3-2,1-2.8,2.4-3.5-1.6-.8-3.1-.2-3.7-1.4-.4-1-.6-3.1.6-3.4,1.7,2,6.7,1.6,5.9-.5l-.9-2.5c-.4-1.1,2-1.4,2.7-2,2.8-2.8,4.4-9,6.9-13.1.8-1.3,2-1.8,1.6-3.7,0-.4.6-1.2.3-1.9-.2-.6-1.3.1-2.3.2.1-1.3,1.3-2,1.8-3.4-1.4-1-1.8.1-2.7,1.1-.8-2.6-.5-5.2-1-8-1.2-.1-3.4-.2-3.8.8-.6,1.6,0,3.9-2.4,4.1-.3-1.6.5-3.8-1.2-5.5-1.3,2.6-.2,5.9-1.3,8.5-3.6,9.1-2.5,13.6-7.7,25.7l-6.8,15.7c-1.3.8-3.4,1.6-4.4,1-.4,1.6.3,2.7.6,3.6-1.2,1.2-1.1,2.8-1.1,4.5,0,.4-2.9,9.1-4.3,6.5-.5-.9.7-2.4.6-3,0-.4-1,.1-1.5-.2s-.4-1.4-.8-1.6c-.4-.1-.9.6-1.3,1.3.7-11.2,4.8-6.3-.4-9.6-1.3-.8,2.4-4.8,1.4-7-2.3,1.7-2.7,4.8-4.6,6.9l-1.7,1.8c-.6.6.9,1.4.8,2,0,1.1-1.8,1-2.4,1.3-2.6,1.6-2.1,5.5-3.6,7.6-1.2,1.7-3.9,4.3-2.1,6.2.8.7,4.1.3,3.9,1.8-.3,1.8-2.2,0-2.9.2-1,.5-1.6,2.5-2.4,2.8-1,.4-3.3.4-3.4-.9-.2-2.2,2.2-3.3,1.9-5.4-1.2,1.3-3.2,3.5-3.1,5.3.1,2.1,2.5,2.8,5.5,3.5h0Z"/>
        <path class="st1" d="M23,636.8c4.8,10.6,8.4,6,18.1,7.4,1.2.2,15.2.4,16.4-3.2-3.3-5.4-9-7.3-14.8-7.9.5-1.5,1.8-1.2,2.9-2.5-1.8-2.6-3.6-4.7-5.8-6.8l3.3-.8c-.5-1.6-1.7-2.5-3-2.9-4.5-1.5-12.4-6.6-15-10.9-.7-1.2-1.9-1.5-3.1-1.5-1.4,0-2,1.2-3.1,2.3s-4.4-1.1-5.2,2.4c-.2.8,1,3.2,1.7,2.8l2.7-1.5c.5-.3,2.5.9,2.2,1.9-.6,2.1-3.6-1.4,3.1,7.1-.9,1.8-3.1,3.7-3.1,5.8,0,2.3,3.1,2.1,4.6,1.9,1,0,1,2.4.9,3.4-.1,1-1.7,1-3.4,1.7-.9.4-1-1.5-2.4-2.8-2.4,2.6,2.5,2.8,3,4h0Z"/>
        <path class="st1" d="M190,261.8c1.8-.6,2.4,1.6,2.6,2.9,2.2-1.3,4.4-2.8,7-2.9-.2,2.2-1.8,2.3-3,2.9.7.7,1.4.3,1.8.8s-.5,1.5.4,2.9c.3.4,1.3.6,1.3-.2,0-.5-.5-1.1-.3-1.3.4-.4.5-.4.7-.3.2.1,1.1.3,1.3.8.5,1.5,4.6,1.6,5.1,0,1-3.1-.2-7-.7-10.4-1.6-1.1-20.8-3.3-19.8-.2-.2-.9,0-1.5-.4-1.9.2.1-5.4-2.8-7.1.6-.7-1.2-.1-1.6-.2-2.1-.1-1-1.2-1.1-2.2-1.5l-8.8-3.4c.9-1.2,2.1-3.2.8-3.8-2.3-1.1-5.1,1-6.4,2.9-2.7,4-3.9,8.3-5.1,12.9,0,.1-2.9,6.4-.9,7.3,2.5,1.2,2.2-2.9,4.6-4-1.2-.6-2.1-1.2-1.7-2,1-2.2,8.6-.4,11-.4-.7,1.9-.4,3.5-.3,5.3,5,0,9.5-1,14.2-1.8-1.1,1.5-3,.4-3.1,2.4,2.2-.6,3.9-.4,6,.6.7-.4.6-1.7,0-2s-1.2-.7-2.4-1.2c1.6-1.2,3.4-2.3,5.8-3.1h0Z"/>
        <g>
          <path class="st1" d="M160.4,581.9c.3-1.5.7-2.8-.5-4-1.4,1.5-.9,3.2.5,4Z"/>
          <path class="st1" d="M181.1,619.8c0,1-.5,1.5-.4,2,.1,2,4.1.3,5.1,2.1.3.6.3,2.4,1,3,3,2.3,7.2,2.1,10.4,4,5.9,3.5,4.8-2.3,10.9-.2-.9-1.9-1-3.7-2-5.3-.8-1.3-7.1-5.7-6-7.8l1.5-2.7c.3-.5-1.4-1.3-1.4-1.9-.1-1.2,3.5-2.5,2.1-3.2-2.3-1.2-2.7,2.8-3.7,2.7-.7-1.9-1.6-2.5-4-3.2,1.1-2.2,4.1,1.8,5.1-1,.4-1-.4-1.9-1.8-1.7-.5,0-1.1-.4-1.1-.8,0-.3,0-.8.2-.8.3,0,1.4,0,1.5-.2,1-2.4-1.3-4.5-3.4-5.5-11.4-5.8-8.9-19-14.2-11.6-1.4,1.3-8.8-3.4-8.5,0-.1-1.5,2.6,6.8,4.6,8.1,2.8,1.8,5.6,4.2,5.9,8.2,0,.7-1.8.2-2.7-.1,0,5.8,4.5,6.6,3.8,8.7-.8,2.3-3.6-3.1-4.3-3.3-.4-.1-.8.8-1.6.9-.5,0-.9-.8-1.2-.8-1.6-.3-1.3,4-1.9,6.2,1.4-1.3,2.6-1.2,4.5-1.6l1.2-.3c.2,0,.5.2.2.5-1,1.7-2.3-.1-3.3,1-.7.8-1.7,2.2-.4,2.8.3,0,.8-.6.9-.8.2-.6,1.5-.5,1.4,0l-1.4,1.4c-.3.3.3,1.3,1.1,1.7.4.2.6-.6,1.6-.8h0Z"/>
          <path class="st1" d="M160.2,576.5c.6,1.9,5.1,2.2,3.9,5.5-.8,2.1-1.6,4.6-1.8,6.7-.6-.3-.8-.6-1-.7-.4-.4-.8,0-.7.2.2.4.1,1.5.6,1.7,1.6.8,4.4-.3,5.5-1.8,1-1.3,0-3.2,1.2-4.5,2,5.1,2.9-1.3,9.2-.4l6.5.9c.7,0,.4-1.6,0-1.9-2-1.3-3.4-.9-3.9-1.7-.8-1.3,1.4-3,.7-4.4-1.1-2.1-5.6-3-12.8-12.6-6-8-10.5-16.2-14.5-25.1-1.2-2.7-3.1-5.1-4.2-8-.9-2.3-1.1-4.8-3.7-6.5-1.3,2.3.4,4.3.3,6.2-.2,2.3.3,3.7,1.3,5.7,1.6,3.1,6.2,13.8,7.6,15.7,1.2,1.5,1.3,3.5,2.3,5l6.6,9.8c1.1,1.7,2.7,2.5,3.1,4.8.6,2.8,2.6,5.3,1.7,8.2l-5.1-3.3c-2-1.3-8.1-16.3-10.6-16.8,2.1,1.5.8,4.8,1.7,6,2.6,3.6,4.5,7.2,5.9,11.5h0Z"/>
        </g>
        <path class="st1" d="M128.1,482.4c-4.1,2.8,1.5,9.4.7,8.7,4.4,4,10.2-.3,10.9-.2l1.7.3c.9.2-.5-1.8-.1-2.2,1.5-1.9.7-3.2,0-5.1-5.6-16.3-2.9-23.1-4.2-39.7-4.1,3.2,1.5,4.1-1.6,10.4-.6.4-1.8,0-2.2.5-1.7,1.8,1.5,9.8-.9,8.5l-1.7-.9c-1.9-1-.8,11.9-.6,13.1.4,2.6.7,4.9-1.9,6.6h0Z"/>
        <g>
          <path class="st1" d="M315.4,312.4l.5-2.6c.5-2.3,5.8,2.3,9.4-2.8-2.3-.1-4-2.1-6.5-2.8-1.9-.6-3-2.1-3.7-3.9-.4-1.1.9-3.7,2.6-3.6,3.4.1,6.1,2.9,10.5,3.3,0-4.4-14.4-11.3-17.2-13.9-1.3-1.2-2-2.6-3.9-2.4-1.6.1-2.5,1.6-4.1,3.4-1.2-2.7.6-4.9,0-7.8-2.4,2.5-1.8,6-3.2,9-3.7,7.9-4.8,7.8-7.9,14.9l3.8-4.1c.5-.6,1.4-.6,1.9-.4,2.7,1.3-1.2,1.5,3.2,5,.8.6.9,2.2,1.6,3,.8.9,2.8.1,3.5.7,1.8,1.4,2.6,3.4,5.5,2.9,1.5-.3,2.5,1.6,4.3,2h0Z"/>
          <path class="st1" d="M346.7,386.9c.7.5.8,1.8,1.7,1.8,3.6,0,1.5-1.7,6.1-2.1.2-.9,0-2.4-1-2.6-.5-.1-1,.7-1.3.8,1.6-.4-8.7-1.1-8-2,1.3-1,10.5-7.9,7-9.5-2.1,1.8-3.5,4.4-5.6,5.8-2.4-3.2-2.1,4.1-5.7,5.4-2.4.9-5.2.3-6.6,3.1,2.5-1.2,4-1,6.4-.7,2,.3,5-1.4,7,0h0Z"/>
          <path class="st1" d="M383.3,369.6c3.2-1,5.8-2.3,8.5-3.6-1.3-1-2.3-1.6-1.7-2.6,1.1-2.1,3.9,0,5.1-.8.6-.5,1.7-1.9,1.2-3.4s-2.8.2-3.7,1.7c-.2-2.1,1.9-2.5,3.9-3.9-2-.2-3.7-.3-5.7,0-3.8,7.5-3.3,2.8-7.6,12.6h0Z"/>
          <path class="st1" d="M337.2,217.4c-.9-5.1-.2,9.7,1.7,12,2.1-5.8.2-11.1-.7-17.1-.5-2.8.9-6.7-3.9-7.7,1,4.5,2.2,8.5,2.9,12.8Z"/>
          <path class="st1" d="M311.4,273.2c.5.6,7.1,9.9,6.6,9.9.7,0,1.1-.3,1.4-.7,1-1.2-1.1-2.8-3.7-6.7-1-1.4-6.8-7.7-8.2-6.6-.7.5-.4,1.2-.1,2,.6,1.8,3.2,1.1,4.1,2.2h0Z"/>
          <path class="st1" d="M358.9,353.4c1.2.7,5,1.7,5.8,0s-2.9-2.4-4.1-2c-.9-1.7-1.4-4.7-3.8-4.7-.8,0-1.6.6-1.6,1.7,0,.8.5,1.7,1.5,2.2l2.1,1c.4.2-.4,1.3.2,1.8h0Z"/>
          <path class="st1" d="M268.2,305.3c4.1,3.2,1.1-7.7,5.7-2.7.9-1.3.4-3.3.3-5-.8.4-1.2.9-1.5,1.3-.5.8-1.9-.5-2.5,0-1.6,1.4-2,4.2-1.9,6.4h0Z"/>
          <path class="st1" d="M376.5,361.8c.1-1.8-.9-2.1-1.2-.6,0,.9.3,1.5,0,1.8-.3.3-1,.7-1.3.5-1.7-.7-.4-2.5-.6-4.1-1,1-1.9,2.5-1.8,4,0,1.1,1.6,2.4,2.7,3.5,1,.9,2.1-.5,2.7-1.2.7-.8,0-2.3-.5-3.9h0Z"/>
          <path class="st1" d="M285.6,302c-5.2,6.1-3.5,2.5-9.5,7.3,1.3,3.5,10.5-3.6,9.5-7.3Z"/>
          <path class="st1" d="M350.1,320.9c2.2.5,4,0,6.3.1-.6-1.7-.7-2.9-.9-4.9-2.1.9-4.1,1.9-5.4,4.8h0Z"/>
          <path class="st1" d="M304.1,333.1c.4,0,.8-.5,1.1-.9-.9-2.9-1.8-5.2-2.9-7.9-.7-.2-1.3,0-1.7.7.8,2.7,1.8,5.1,3.5,8h0Z"/>
          <path class="st1" d="M266.8,306.9c-2,.3-3.3,1.2-3.8,2.8,3.7-.2,6.9-1,10-2.6-2.2-.9-3.9-.1-6.2-.3h0Z"/>
          <path class="st1" d="M284.4,321.8c2.3-1.3,1.2-3.9.3-6.1,0-.4.4-1.1.5-1.3.2-.6-.4-1.4-1.1-1.2-1.9.7-1.1,5.4.3,8.6h0Z"/>
          <path class="st1" d="M308.1,265c.2-.6-1.5-.3-2-.4l-1.9-4.5c-1.4,2.3-2.6,3.8-1,5.2,1.5,1.4,3.5,1.8,4.8-.4Z"/>
          <path class="st1" d="M299.9,321.1c2-3,.2-5.4-.6-9-2,1.9-1.5,5.5.6,9Z"/>
          <path class="st1" d="M278.2,355.7c-1.7-1.9,4.4,20.1,4.1,12l-4.1-12Z"/>
          <path class="st1" d="M313.3,267.8c1.6,2.7,3.8,4.8,6.4,6.1,4,2.1-9.9-12.3-6.4-6.1Z"/>
          <path class="st1" d="M276.6,324.8c.9.6,2,.8,2,0-.1-2.5-.7-4.6-2.1-6.7-.8,2.3-.4,4.3.1,6.7Z"/>
          <path class="st1" d="M403.1,349.7c.5,1.5,1.2,1.9,2,3,1.4-1.7,2.5-3.6,3.2-6.2l-5.3,3.2Z"/>
          <path class="st1" d="M306.4,385.5c1.8,2.4,5.8,1.9,7.2-.8-2.6-.4-4.6-.4-7.2.8Z"/>
          <path class="st1" d="M397.4,354c.1,1.6,4.9,2.5,5.4,1.8.4-.4,1.1-1.9.4-2.2-1.5-.6-2.2,1.4-3.9,1,1.6-1.1,3.5-1.6,3.5-4.2-1.9-1.1-2,1.4-3.4,1.6-1.2.2-2.1.8-2.1,2h0Z"/>
          <path class="st1" d="M369.2,356.8c1,.7,2.1.5,2.7-.1.9-.9.5-2.1-.5-2.8-1.5-.8-2.1-1.2-3.1.5-.4.7-.4,1.5.9,2.4Z"/>
          <path class="st1" d="M282,255c1.3-.2,2,.3,3.5-.2-1.4-1.7-.8-3.1-1.1-5.6-1.9,1.7-2.9,3.7-2.4,5.8Z"/>
          <path class="st1" d="M278,259c1.6-2.1,1.7-5.1,0-7.2-1.5,2.2-1.8,4.5,0,7.2Z"/>
          <path class="st1" d="M288.5,310.1c-.1,1.5-.1,2.5.6,3.2.5.4,2.2.4,2.2-.5-.1-1.6-.9-2.8-1.3-4.3-1-.3-1.4.3-1.5,1.6Z"/>
          <path class="st1" d="M276.1,303.3c.7-2.3.4-4.6.1-7.4-1,2.1-2.5,4.6-.1,7.4Z"/>
          <path class="st1" d="M271.9,372.4c.2-2.2,1.1-5-.8-7.4-.8,2.4-.8,4.9.8,7.4Z"/>
          <path class="st1" d="M330.8,201.5c.5,1.3,1.6,1.3,2.3,1.6,1,.5,2.4-.8,1.6-2.3-.5-.9-2.8.3-3.9.7Z"/>
          <path class="st1" d="M321.2,275.7c2,2,2.2,4.1,4.8,4.6l-3-4.1c-.5-.7-2-1.2-1.8-.4h0Z"/>
          <path class="st1" d="M269.7,336.4l.7,4.4c.7-2.1.2-4.1.2-6.6-2,1-2.6,2.8-1.9,5.1.9-.4,0-1.3.9-2.9h0Z"/>
          <path class="st1" d="M389.4,338.5c2.1,0,3.1-1.2,4.6-2.4-1.9-1.1-4,.1-4.6,2.4Z"/>
          <path class="st1" d="M304.5,386.4c.3-1.7-.3-2.6-.6-4-1.4,0-1.8,1-1.8,1.8,0,1,.3,2.2,2.4,2.1h0Z"/>
          <path class="st1" d="M280.6,337.8c.6-2.2-.1-3.9-1.8-5.1-.1,2,.1,3.6,1.8,5.1Z"/>
          <path class="st1" d="M346.5,391.7c1.3.5,1.4,1.3,2,2.6,1.2-1.2.9-2.6,0-3.9-.8.2-1.2.5-1.9,1.3h0Z"/>
          <path class="st1" d="M387.1,354.6c1.9-.6,1.9-2,1.6-3.6-1.4.4-2.8,1.7-1.6,3.6Z"/>
          <path class="st1" d="M348.9,194.5c-1.1.5-.6,4.1,0,5.8.2-2.4,2.1-6.7,0-5.8Z"/>
          <path class="st1" d="M319.3,311.9c1.8,1.4,3.5.7,5.5.4-1.6-.5-3.3-2.1-5.5-.4Z"/>
          <path class="st1" d="M347.8,310.7c-.9.6.7,2,1.7,1.8.7-.1,2.1-1.5,1.2-1.8-.7-.3-2.3-.4-2.9,0Z"/>
          <path class="st1" d="M351.1,213.3c.8-2.1,0-3.7-.9-5.2-.8,2.1,0,3.7.9,5.2Z"/>
          <path class="st1" d="M332.7,320.5c.1,1.3,1.1,1.5,1.7,1.5,1.1,0,3.1.4,2.4-1.3l-4.1-.2Z"/>
          <path class="st1" d="M313.1,349.3c-.3-2-1.1-3.8-2.8-5.1.2,2.1.9,3.7,2.8,5.1Z"/>
          <path class="st1" d="M276,306.9l3.3-2c-1.3-.5-1.8-.1-2.4-.2-.8-.2-1.5,0-.9,2.2h0Z"/>
          <path class="st1" d="M271.4,312c.5.8,1.3,0,1.3-.5,0-.6,0-1.5-.9-2.4-.4.6-1.1,1.8-.4,2.9Z"/>
          <path class="st1" d="M320.7,213.3c1.3,0,1.6-1.1,1.3-1.4-.8-.9-1.4-.7-2-.4-1.3.5-1,1.9.7,1.9h0Z"/>
          <path class="st1" d="M332.4,287.4c-.5-1.2-1-2.9-3.1-3.8.3,1.4.7,2.7,3.1,3.8Z"/>
          <path class="st1" d="M327.6,206.5c-.4-1.1-1.6-.5-1.8-.1-.4.6-.4,1.2,0,1.5.9.6,2.3.2,1.8-1.4Z"/>
          <path class="st1" d="M348.1,168.6c1.4,1.5,3.2,1,4-.5-1.4-.2-2.4-.8-4,.5Z"/>
          <path class="st1" d="M296.7,306.8c.9.2,1.2-2.8,0-2.9-.9,0-1.4,2.5,0,2.9Z"/>
          <path class="st1" d="M301.9,321.5c-.4-.6-1.9,1.1-1.4,1.4s1.2.3,1.5.2c.3-.2.2-1.1-.1-1.6h0Z"/>
          <path class="st1" d="M340.2,197.2c-.3-1.1-1.4-.6-1.7,0-.2.4-.2.9.2,1.3.5.5,1.8.1,1.5-1.3h0Z"/>
          <path class="st1" d="M337.7,309.5c1.4.3,2.3.6,3.4,1.8.5-1.3-.5-1.9-.8-2.9l-2.6,1.1h0Z"/>
          <path class="st1" d="M349.6,206.8c.5-1.6.5-3.1,0-5.1-.7,1.3-.7,2.7,0,5.1Z"/>
          <path class="st1" d="M279.4,199.7l3.6-2c-1.9-.9-3.1.3-3.6,2Z"/>
          <path class="st1" d="M360.7,342.9c.1-1.4.1-2.2,0-3.7-1.3.4-1.2,1-1.2,1.8s-.1,1.4,1.2,1.8h0Z"/>
          <path class="st1" d="M296.6,309.5c.9.8,1.3,1.1,1.4,1.4.3.5.6.4.7,0,.2-.6-.2-.9-.7-1.4,0-1.7-1.9-1.3-1.5.1h0Z"/>
          <path class="st1" d="M290.2,333.1c.7.7.7-.4.7-.8.1-.8-.8-.9-.8-2.1-.7-.7-.7.4-.7.8-.1.8.7.9.8,2.1h0Z"/>
          <path class="st1" d="M351.6,331.7c1.1.5,2,.6,2.5,0,.1-.3-.7-1-1-1.2-.6-.3-1.9.9-1.5,1.1h0Z"/>
          <path class="st1" d="M284.1,259.5c-.1-.2-.6.5-.8.6-.4.3-.5,1.2,0,1.4.4.1,1.8.1,1.7-.3,0-.4-.6-1.1-.9-1.7h0Z"/>
          <path class="st1" d="M280,250.3c.9,1,2,.2.8-.7-.5-.4-.9-1.1-1.1-1-.2,0-.6.6-.8.7-.5.5.4.6,1.1.9h0Z"/>
          <path class="st1" d="M343.2,237.7c.5-1.3.5-2.6,0-4.4-.7,1-.7,2.2,0,4.4Z"/>
          <path class="st1" d="M356.2,391.4c-.1-.4-1.3.5-1.6.5-.6,0,0,.7.4,1,.4.5,1.6-.2,1.2-1.5h0Z"/>
          <path class="st1" d="M360,393.9c-.4-1-1.2-1.5-2-2.1-.5,1.2,0,2.3,2,2.1Z"/>
          <path class="st1" d="M272.6,272.3c.5-1,.5-2.2,0-3.6-.8.8-.7,1.8,0,3.6Z"/>
          <path class="st1" d="M348.3,191.8c-.4-.5-1.1,0-1.3.2-.1.2,0,.6,0,1.4,0,.4.4.5.7,0,.4-.5,1.1-1,.5-1.7h0Z"/>
          <path class="st1" d="M351.9,306.3c-.8-1-1.9,1-1.9.9.2.7.8.3,1.1.4.7.2,1.5-.5.8-1.3h0Z"/>
          <path class="st1" d="M327.5,321.3c.1-1.3.3-2.1-.2-2.9-.9.8-1.4,1-.8,1.5.6.5,0,1.4,1,1.4h0Z"/>
          <path class="st1" d="M357.2,334.8c-.4-1-1.2-1.5-2-2.1-.5,1.2,0,2.3,2,2.1Z"/>
          <path class="st1" d="M364,345.2c0-.4-1.2-.2-1.5-.2s-.5.5-.4,1c0,.4.7.5,1,.4.2-.1.8-.3.8-1.2h0Z"/>
          <g>
            <path class="st1" d="M362.1,267c.2,1,1.5,2,1,3.3-1.4.4-3.8-.8-4.7.2-2.3,2.3,2.8,4.4.9,5.6-.2.2-.4.9,0,1,.4,0,1.1-.3,1.5-.3,2.8,3,3,6.7,8,7.8-3.7,2.5-11.6-4.8-12.8-6.6-3.4-5.4-4-11.7-6.7-17.3-1.2,3.3,6.9,17.1,3.8,16.6,1.5.2-15.3-10.8-17.7-12.1l-15.9-8.7-11.7-5.5c-.2-5,1.3-10.3.8-15.2-.4-3.2.3-4.1,1.9-6.4,2-2.8-.5-7.3-3.1-9,.1-1.7,1.8-1.8,2.2-3.5-1.3.2-2.1.6-3.3-.1-3-1.8-2-6.2-4.4-10.9-.6,2.4.3,4.4-1.7,5.8l4.1,4.6c-6.2,3.1-6.2-1.8-13.7,3.2-1,.6-2.9,0-2.9,2.2,0,.7-1.7,1.4-1.1,2.1.5.5,2,.8,2.9.8,10.8-9.4,11.4.4,17.1-1.6-.2.7-.4,1.2-.4,1.6-.2,1.6,1.5,0,3.3,2.7.3.5-.7,1.9-1.1,1.5-2.6-2.4-5.7-2.3-8.2.3-1.1-.4-1.4-1.8-3.3-1.3,2.5,6.1,2.5,17.1,1.9,23.6-.9-1.5-1.5-2.7-2.9-3.9,3.3-5.6,2.5-12.1-.8-17.5-.9,1-.9,1.9-1.3,3-1.3,0-2.5-.2-3.3.4-1.1.9-1,2.3-2.4,3.6.6-3.5,4.4-14.7,10.6-11.6-1-.6-2.1-1.9-3-2.6-1.2.6-3.5,1.3-4.5,2.3l-5.8,5.9c-1,1-1.4,2.1-3.6,1.3.9-3.2,2.3-6.5,3.6-10.2,1.5-4.5,1.9-9.8,4.8-13.8,2.1-2.9,6.3-.6,8.1,1.9.6.6,1.2-.3.9-.6l-1.2-1.2c-1.6-1.6-2.9-3.1-4.6-3.2-7.6-.7-9.1,10.9-11.5,17-.7-4.8,1.8-8.9,2.8-13.5.4-2-.3-4.5,1.1-6.2-1-.4-1.7-.2-2-.2-.7.2-.8-.3-.5-.7,3.2-6.4-2.4.9-3.6.7-.6-.1-.6-1-1.5-2-3.8,6.4-1.1,8.4-2.4,14.7-.8,1.6-2,2.6-1,5.5-1.8-1.8-1.9-5.1.9-6.7-4.2-.9-.7-8.4-.7-8.6.3-1.5-1.2-3.5,0-5.3,1.6-2.4,2.7-5.5,5.5-6.6.4-.1,1.4,1,1.4,1l1-1.4,7.4,1.4c1.4.3,2.1,2.7,4,1.6-2-3.6-6-4.7-10.3-5.6-.2-1.8-1-3.3-2-4.9-4.7-8,1.2-7.4-4.4-12.2-.4,11.4,2,7.1,2.3,12.9.2,2.6-1.9,2.5-2.6,3.9-1.1,2.2-1.4,3.7-3.8,5.1-7.6,4.2-17.4,8.6-18.5,17-.6,4.4-.6,8.8,2.4,12.3,1.6,1.8,9.3,11.3,10.1,6.3.3-2.1-9.5-4.8-10.3-13.2,0,.2.3-10.6,2.6-8.7,1.1.9-1.6,8,1.5,11.8.5.6,2.2-.8,2.7-1.4.6-.7,0-2.1.3-3.4,1-.6,3.2,0,4.4,1,.7-2.4.5-4,.7-5.7,2,1.1,1.1,3,1.2,4.8.3,4.1.9,8.1-1.5,11.9,0,.9,1.6.5,2.8.7-1.5,1.9-3.4,3.1-5.4,4.2,1.1.8,2,.6,2.6,1.1.3.3-.3,1.4,0,2.1,2.3,0,4.6-1,6.7-2.4,1-.7,3.1,2,2,2.6-1.2,0-2.4-1.6-3.3-.6-1.2,1.3-2.5,3.3-.6,4.2,2.2,1,3.6-1.2,4.7-2.7.3-.5,1.8,1,1.3,1.6-2.3,2.3-7,2.3-7.7,3.7-1.9,3.6,9.6.9,11.1-.5-2.2-2.2-3.6.5-5.7-.4,1.4-1,3.8-1.3,4.3-3.3.3-1.1-1.2-1.8-1.5-3.3,2.7.1,3.3,2.3,4,4.5.9,2.8,4.8,2.5,6.8,4,2.2,1.7,2.4,4.8,4.3,6.7-1.3.6-2,.3-3,0,.1-1.9-1.2-4.1-3.2-4.4-1.1.3-.6,2.1-.2,3,.4.8,1.9,1,2.5,2,.6,1.1.8,3.9,2.5,3.4.7-.2,1.8-2.9,2.8-1.4.8,1.2-.7,3.8.6,5.2,1.5,1.6,2.9,3.2,3.7,5.4,2.9-2.6.9-5.3-1.4-7.3-.7-.6-1.8-.3-1.4-1.1.2-.5.5-1.6,1.4-1.6,1.1.7.7,2.6,3,3.3,0-.8-1.4-17.8,1.1-17.7,1.4,3.3,2.2,17.3-.2,19.4,2.9,3,5.5,6.3,9.1,8.8-.8-4.7-8-6.2-5.3-9.7.7-.9,1,.3,1.9.8,3.6,1.6,23.7,12.7,26.4,14.6,2.6,1.8,1.8,3.5,2.4,5.9.8,3.1,1.8,5.7-.4,9.1-.2.4.3,1.6-.2,2.1-.5.4-1.6-.2-2.5-.4-2,1.3,4.9,5.7,6.5,7,4.2,3.3,7.8,7.1,12.5,9.8,2.6,1.6,5.2,2.6,7.7,5l-2.6.3c-1,3.6,6.7,9.1-.7,13.2,1.6,1.4,2.7,3,4.7,4.2l2.6-3.1c.5-.6.1-1.5.5-1.8.8-.6,2.1-.4,2.6.5,2.2,3.5,1.3,6.7-.5,10.2-.2.4.8,1.6.9,2,.6,3.4-9.1-2.3-10.9-.5,1.5,1.5,3.4,2.7,5.2,3.3,1.1-.8,2.1-1.7,3.2-1.2s2.6,1.4,1.2,2.4c-.3.2-1.1-.2-1.3-.1-.3.1-.8.1-.7.8s2.2,1,1.9,1.8c-.2.4-.4.8-.9,1.1-.3.2-.7-.4-1.1-.7-.6-.5-1.3-.6-1.5.1,0,.4-.1,1,.6,1.2.4.1.8.3,1,.5.1.2-.2,1,0,1.1,1.3.7,2.9.2,4.6.6-.9,1.8-2.5,2.6-3.6,4.3.9,1.6,6.7,2.7,7.1,2.4.8-.5,3.2-4.5,3.3-4.3,0-.7-.8-.9-1.2-1.7,4.7,1.8,8.7-11.6,12.4-15.4,5.5,4.6,21.2,12,27.3,10-2.5-1-4.7-.1-7.1-1.5,1.3-2.8.6-5.9,1.2-8.6l1.2-5.4c.6-2.7,1.2-5.2-1.1-7.2,0,2.4.9,3.5.6,5.1-.2,1.2-1.6,1.8-2.7,2.7-5.6,5.3-7.3-2.8-14,6.2-.6-.9.4-1.7.2-2.3-.4-.9-1.3-.8-2.2-1.5,5.5-1.3,2-1.5,8.2-2.6-3.9-6.9-3.6-12.9-11-13.9-.2,3.5,6.2,8.6,2.9,11.2l-4.1,3.2c-1.4-3.4-2.5-5.5-4.4-7.9,5.1-1,4.2,4.7,6.8,5.6-.6-13.1-4.4-7.1-3.7-13.6-4.9-2.8-5.5,13.1-8.7,5.3-1.1.8-.2,1.9-.6,3.8-6.1-4-5-3-5.8-6.2-.2-1,2.2-1.7,2.2-2.6,0-8.3,2.6-4,3.5-7.6.2-.8-1.8-1.4-1-2.5.1-.2.2-.6.7-.2,8.9,9.8,21.4,15.6,34.4,12.1-5.7-1.1-12.4,1.5-17-1.8l-7.5-5.3c-1.8-2.5.5-6.5.3-8.9,0-1.6-1.3-3.2-1.8-4.6-.4-1-2.2-.6-2.7,0-.5.7-1.1,1.6-1.4,2.8-2.8-1.5-4.8-4.2-7.3-6.6-2.3.1-4.1,2-6.2.4,4.3-.5,7.8-1.3,10.1-4.3-2.5-.3-4.8,2-6.4.8-1.3-1.9,1-3.5,2.5-3.9,4.3-1.1,4.6,2.9,6.5,2.3,1-.3-.5-2.2-.1-2.9.2-.3.6-.5,1-.5,1.8,0-.2,4.5,3.7,6.4,3.3,1.6,9.1-1.2,9.3-2.9.2-1.5.2-3.5-1.9-3.8-2.6-.4-5.2-.8-7.2-2.3,2.5-1.5,5.1,1.6,7,.9,2.6-.8,3.4-4.7,4.8-6.6.8-1,1.8-1.2,1.8-2.2,0-1.3-9.2-7.1-9.9-5.5-.3.7-1.1,2.1-.7,2.5,1.2,1.2,4.4-1.1,5.5.6.5.8.5,2-.8,2.4-1.8.5-3.2-1.4-4.7-1.5-1.3,0-1.5,3.7-.2,4.5,2.1,1.2,4.4,0,6.7,0-1,1.4-1.5,3.4-2,5.2-3-.1-5.5-2.8-8.4-2.3-7.5,6.5-4.1,1.4-10.7,4.9-2.5,1.3-6.3,1-7.4-2s5.3-.2,6.6-5.4c.1,1.3,5.3,5.5,6.5,4.2-.9.9,1.4-6.1.5-6.5,2.7-.7,5.4-1.4,6.1-4.5-7.1,4.3-6.7-3.6-15,3.6-2.6,2.3-6.2-2.1-6.8-5-1.2-5.8-2.6-11-4.4-16.5-2.5-7.5-4.4-14.9-6.4-22.4-.6-2.2-1.7-3.7-1.4-6.2.3-2.2-1.4-4.5-1.3-6.6-1.5,2.3.2,4.4.2,6.6-.1,5.6,1,10.4,2.3,15.7l7.7,30.9h0Z"/>
            <path class="st1" d="M309.6,216.9c2-.3,4,.8,4.8,1.8-.2.9-1.5,2.2-1.2,3,2.5,1.8,1.7,3.8.9,6.1-1.1,3.3-1.5,6.3-3.8,9.2-.9,1.2-.6,3.1,0,3.8,1,1,2.3,1.6,3.8.9,1-.5,12,.1,12.5,1.3-.9,1.1-2.4,2.7-1.5,3.9,2.5.2,3.5-3.1,5.5-3.1,4.6-.2,9.9,1.8,13.9,3.6,0,2-.2,4.3,1.7,5.5.5-1.3,0-2,1-3.2,2.2,2.3,5.9,2.8,7.7,5.4,1.4,1.9,1.1,4.4,3,5.7-.8-2.2-.7-4.8-1.5-6.3-2.2-4.2-3.3-7.8-4.4-12.3l-4.5-18.2c-1.1-4.4-1.6-8.6-3-12.9-1.2-3.8-.4-7.8-2.6-11.7-1.8,1.9-.3,4,.1,6,1,4.3,1.9,8.6,2.7,13,1.3,7.4,1.9,14.7,4.2,21.9.9,2.7,1.6,5.2.5,8l-7.1-3.8c-2.8-1.5-5.4-2.5-8.9-2.6.4-1.9-.8-4.1-.1-5.7,1.9-3.4,2.6-7.4.2-10.8-.9-1.3-3.5-11.4-1.3-13.9-.4-1.3-3.1-2-3.9-.7-1.1,1.7-1.5,2.2-.2,4.1,2.6,4,3,8.9,3.7,13.6.2,1,1.5,1.6,1.5,2.5,0-1.3-2.2,8.2-4.4,9.1-1.9.8-4.5-.6-6.2-1.3,1.2-2,.3-4.8,1.4-6.1,4.6-5.2.8-6.9.8-10.1,0-2.1.2-3.6-2-4.6,1.5.3,2.2.5,2.2,0,.2-1.5-2.2-2.8-3-2.6.9-.2-3,1.7,0,6.3,2.1,3.1.5,6.9,0,10.4-.3,1.7.5,4.4-1.5,5.1-2.8,1-5.8,1.5-8.8,1.7,3.9-5.3,6.3-10.2,7.3-16.1.1-.7.8-1.2.5-1.8-1-2-3.9-1-4-3.2,0-.9.5-1.8.7-3.1-1.7-.3-7.1.2-6.5,2.3h0Z"/>
            <path class="st1" d="M362.1,267l-2.1-1.2c.1.8.4,2.6,1.4,2.9s1.1-1.4.7-1.7h0Z"/>
            <path class="st1" d="M360,265.8c-.3-1.5-.3-3.9-2.2-5,.6,1.5.3,3.8,2.2,5Z"/>
          </g>
          <path class="st1" d="M286.7,301.9c6.9-2.4,9.4-9,10.2-15.9.4-3.4,2.8-6.6,2.1-10.2-.2-1.1-2-2-1.7-3.9-1.2,3.3-1.2,6-2.8,8.8-1.3-1.6,3.6-15.9-2.1-10.5.2-1-5-5.7-4-5.6-.5,0-1.2.2-1.1.9.1.5.4,1,.5,1.2,0,.3-.4.8-1.1.7,0-2-.8-3.7-3.1-5.1-2,6.6-2.5,3.1-4.8,7.6-1.2-2.5.9-3.8,2.5-5.7-1.6-1.1-2.7,0-4.6-.5.4-2.7-1.5-5.2-1.6-7.2-.3-3.3,1.6-6.7.5-10.1-4.8,0-.7,14.5-3.2,18,1.1.2,1-.7,1.5-1.6,1.2,7.6-.8,14.8-2.9,22.4-1.9,6.9-4.3,13-8.2,19.4,7.9-6.9,10.9-22.7,12.9-31.8l-.8,14.2c0,1.1-1.9.8-2.3,1.9-.8,2.4-.5,5.2.7,7.6,1.9-1.5,1.6-4.4,2.9-6.1,8.2-4.1,9.3-.1,14.9.8.2,2.3-2.4,3.3-2.5,4.7,0,2.3.5,4-1.6,5.9h0Z"/>
          <g>
            <path class="st1" d="M442.9,470.8l5.7,1c-.3.7-.7.8-1,.9-.8.4-.3.7,0,.9.6.2,1.4,0,1.5-.8,0-.7.4-1.2.6-1.6.3-.4,1.3.4,1.8,0,1.8-1.5,2.6-5.5.3-7.2-6.7-5-9,.2-11.4.4-1.9.2-5.4.1-6,2.4-.7,2.8,3,4.2,4.7,5.4.9.8.9,1.8,1.5,2.1,1,.5,2.6,1.1,3.7,0-1-.6-2.1-2.6-1.5-3.6h0Z"/>
            <path class="st1" d="M413.9,455.2l4.6,4.9c.4.5,1.2.2,1.6.2,3.5-.5-11.8-18.1-14.1-20l-6.1-4.7c-2.7-2.1-4.9-4.8-8.4-5.3-.3,3.1,1.7,5,4,6,2.1.9,2.8,4,6,3.4-.3,1.4-.2,2.1.2,3,.6,1.3,2.6.9,3.1,1.6,2.6,4.1,5.9,7.3,9.2,10.9h0Z"/>
            <path class="st1" d="M293.4,521.4c.5-1.4.9-1.7,2.5-2.3,3.4-1.4,7.4-6.5,5.3-10.1-3.2-.2-7.3-.1-10.5-1.8-1.7-.9-4.2-.2-4.9-3-1.4.7-1.9,1.5-2,2.6-.4,4.4,7.8,6.9,11.9,6.4.8.6-.2,2-.5,2.7-.5,1.2-1.5-.5-3.2-.7.8,1.9,1.1,3.1,1.4,6.3h0Z"/>
            <path class="st1" d="M448.9,584.8c.6,2.4,3.1,2.5,5.1,2.8.9-10.7,1.6-9.2,7-18-3.4.5-5.3,3.2-6.6,6.1.5,3.6-1.2,7.2-5.5,9h0Z"/>
            <path class="st1" d="M456.2,564.2c3.5,4.1,4.5.7,7.8,2.8,1-.7,1.2-2.2.3-3.1-2.2-2.4-5.9-2.1-8.1.2Z"/>
            <path class="st1" d="M313.5,435l-.6-4.9c1.2-1.1,5-10.5,2.7-11.7.1,2-4,12.6-5.1,14.6s.4,1.7.7,2.2c.5.9,2.5.9,2.4-.2Z"/>
            <path class="st1" d="M308.8,441.7c1-1.2,1.9-2.1,2.8-3.2.9-1.3-.5-2.8-1.5-3.2-1,2.1-1.5,3.9-1.3,6.4h0Z"/>
            <path class="st1" d="M281.8,521.8c.6.5,1.9.7,2.8.7-.7-2.7-.7-4.6-2.1-6.9-.7,1.8-.9,3.9-.8,6.2h0Z"/>
            <path class="st1" d="M432.7,461.1c.9.3,1.8.3,2.2,0,.8-.5.7-1.4.5-2-.2-.7-1-1-2-1.4-1.3-.5-1.6.5-1.7,1.3,0,.7-.1,1.6,1,2h0Z"/>
            <path class="st1" d="M386.9,426.7c2.6,1.9,2.1,3.2,4,3.1-.6-2-2.4-2.7-4-3.1Z"/>
            <path class="st1" d="M274.9,604.8c1.8.6,3.2,1,4.7.4-1-2.1-3.2-1.5-4.7-.4Z"/>
            <path class="st1" d="M343,413.4c1.8-.2,2.9-2.1,3.1-3.9-2,.8-2.3,2.2-3.1,3.9Z"/>
            <path class="st1" d="M452,587.8c-.3-.3-1-.2-1.4-.2-.5,0-.9.6-.6,1.1.3.6.8.3,1.1.4.6.2,1.6-.4.9-1.3h0Z"/>
            <path class="st1" d="M334.8,412.5c1,.8.6,1.5,1,1.7.4.1.9,0,1.1-.4.2-.4,0-.9-.6-1.3-.5-.8-1.5-.7-1.5,0h0Z"/>
            <path class="st1" d="M447,478.4c-.3-.4-1.1,0-1.6-.1-.3,0-.6.5-.4,1.1.3.6.8.3,1.1.4.7.2,1.6-.4.9-1.3h0Z"/>
            <path class="st1" d="M313.1,437.9c0,1.9,1.7,1.9,1.7,0,0-1.1-1.6-1.1-1.7,0Z"/>
            <path class="st1" d="M467.8,563.5c-.2-.5-.7.3-.9.5-.5.4-.4,1.3.1,1.4,1,.2,1.5-.4.8-1.9h0Z"/>
            <path class="st1" d="M421,462.7c1.4,1.4,2.1.9,1.3-.6-1-.9-2.2-.5-1.3.6Z"/>
            <path class="st1" d="M293.2,479.4c-1.6,1.8-6.2,5.5-5.9,7.5.3,2.1-1.8,3.2-2.2,4.8-.9,2.8-1.8,5.5-2.2,8.4.2,1.6,3.1,3,4.8,2.9-.4-3-1.2-5.4.5-8,.6,2.1,2.6,4.1,5,4.8.5.1.9-1.5,1.2-1.6.4-.2,1.3,1.1,2.1.6s.8-1.6,1.2-2c.5-.4,2.5-.7,2.7.3.3,2.1-1.8,3.4-1.7,5.9,1.2,0,3,0,4.1-.5-1.7-7.9,6.8-3.1,5.4-15-.3-2.8,7.6-20.9,9.2-24.2-.7-1.8-1.8-4-.6-6.2.9.6,1.2,1.8,2.4,1.8l5.7-13c.1-.3,1.2-.2,1.3-.6.1-.5-.3-1.2-1.1-.8-.9.4-1.2.5-1.5,0-.7-1.2,1.8-3.3,1.9-3.3.7-.3,1.3.6,2.4,1.2,2.1-6.8,10-15.5,8.1-21.1-3.2,2-2,6.6-3.2,9-.3.5-.8.3-.7,0l.3-1.5c.2-1-1.8-1.3-2.3-2.6.8-1.6,1.5-2.6.5-3.8-3-3.6-2.4,1.6-7.4-4.6-1.9,2.1-.4,4.4-1,6.2-.7,2.1-3,3.6-2.6,6.5-.3.9-2.2,1.4-1.2,2.7,1.7-.8,1.8-3.3,4-2.5-6.4,4-1.5,7-6.6,11.1-.5.4.4,2.3,0,2.8-.3.7-1.8.8-2.3,1.4,2.3,2.4-1.6,7.4-2,6l2.1-9.4c-.5-.8-.7,1.1-2.3-1.7l-7,11.9c-1,1.7.2,4.5-2.8,5.2.4,1.7.2,2.8.2,4.4-2.4,1.2-3.9,3.1-4.2,6,1.1.7,2.9,1.6,4.2,1.3,1.8-2.3,4.3-4.4,5.1-7.4l-2.6-1.4c5.3,0,4.4-6.7,5.8-8.5.8,2.5.6,3.1.1,4.5-1.2,3.5-6,17.9-10.3,17.5-.3-1.6,1.4-1.4,1.8-2.7-1.7,0-3.5-.8-4.8-1.1-1.7.9-.5,3.6-.8,5.1-.5.4-1.7.9-2.2,1.1-.9.3-.2,1.8-.6,2.4h0Z"/>
            <path class="st1" d="M267.1,582.9c-.5,3.1-4.4,6.2-3.3,9.5,1.1,1.7,4.8,2.9,4.1,5.7-1-.4-1.5-.9-2-1.1-.8-.3-2,1-1.3,2.3,1.2,2.2,6.2,4.8,7.9,2.4l4.5-6.2c1.4,1.8.4,4,1.4,5.6s3.8.8,5.4.4c2.2-.6,4.2,0,6.4-.8,1.5-.5,1.3-3.7.2-4.1-1,.3-1.5,2.3-3,.8,2.6-1.3,2.8-3.1,3.1-5,.5-2.9-2.7-3.5-3.5-5.8-2.4-6.6-1.1-14.7-.1-21.6l1.8-12.3c.6-3.9,2.3-7.5,2.7-11.6.5-5.6,2.4-10.6,3.9-16-1-.2-1.8.4-2.3.1-1.4-.6-.6-3.4-1.6-3.8-1.4-.6-2.2,5.4-4.7,6.5-.6-1.3-.5-4.2-2-3.6-2-.6.4,10.1-3.3,4.2-1.3,1.8-.3,4-.9,6.2-2.5,10.2-1.7,15.2-4.9,23.9,2.6.8,3.4-1.1,4.9-2.5.8,1.2.6,4.4-.9,5.1-.8.3-2-1.2-2.6-.8-.9.6-1.5,1.8-1.5,2.5.1,1.4,2,1.1,3.3,1,.8,0,.8,1.3.2,1.9-1.3,1.2-3.1-1.6-3.4-1.2-2.2,3.2,2.9,2.5-2.6,8.2-1.4,1.5-.9,4.6-2.7,5.9l-.8-2.9c-1.8,1.9-1.9,4.4-2.4,6.8h0Z"/>
            <path class="st1" d="M421,443.1c5.9,5.9,3.6,1.6,6.9,7.1.1,2.9,1.9,5.9,4.6,6.9-.8-3.9,10.8-3.6,10.3-2.3,1.1,1.6.8,4.7,4,4.9,1.3-5.4-2.1-10.5-6.6-13.3-.5-.3-.1-2.6-1-2.7-3.2-.4-15.6-8.9-18.7-10.7-6-3.4-11.1-6.9-15.9-11.7-6.6-6.6-14.2-11.9-20.2-19.2-1.5-1.8-2-3.9-2.3-6.2-.8-5.6-7.6-.3-5-5.5,1,1.4,1.5,2.6,3.3,2-.8-2-1.1-3.7-1.2-6.1-2.2.3-2.6,1.9-2.6,4.2-1-3.5-8,1.8-8.2,3.3,0,.9,1,1.8.4,2.7-2.2,3.9-4.3-.2-5.4,2.3-.3.8,3.4,8,8.2,8.2-3.2,3.5,2.4,4.6,8.7,8.6.3.2,1.7-.4,2-.1.3.3,0,1.2.5,1.8,2,1.9,5,2.1,7.1,3.9,5.1,4.1,10.2,8,16,11.2,2.1,1.2,3.8,2.8,5.6,4.4,2.9,2.5,6.7,3.8,9.5,6.5h0Z"/>
            <path class="st1" d="M453.5,525.9c-.8-1.3-.7-2.6-1.7-3.6l2.7-3.1c-2-3.4-2.8-7-5.4-10.6.1,3.6.6,7.1.8,10.8l.7,14.2c.3,6.4-1,11.6-2.6,17.5-.8,2.9,4.7,4.8,6.9,4.3,2.8-.6,5.5-.2,8.1.2,0-1.2-.4-1.8.1-2.2.5,1.7,2,1.7,3.7,1.9,1.1.2,1.2-1.3,2.6-2.2.2,2.4-1,3.5-.3,4.7.5,1,3.7,2.7,4.1,1.1,1.8-7.5-.8-14.8-2.6-22.1l-6.6-27.4-3.3-11c-2-6.6-3.4-23.3-5.2-25.1-1-1-2.3-.8-4.2-.5-1.8.2-2.3.9-2.6,2.8-.2,1.3.7,1.6,2.4,1.9-.4,1.8-.9,3-1.4,4.5,1,.8,2.1.8,3.5,1.6-.8,1.8-2.1,2.9-3.8,3.6,3.7,3.5,4.5,8.4,5.6,13.1l2.4,10.4c.4,1.5,5.5,16.7,2.7,18.8,1.1-.3,1.1-.9,1.6-1.1.8-.4,1.4.5,1.4,1,0,.4-1.2.9-1.5,1.4.9,3.9,2.8,8.2.6,12.4-1.9-2.3,0-5.3-2.3-6.7-.4-.2-2,.2-1.6-.8.2-.6,1.4-.9,1.6-1.4.4-1.5-3-10.1-4.3-12.4-1.1.9-.6,2.2-2.2,3.7h0Z"/>
            <path class="st1" d="M327.1,643.2c1.6-1.7,2.5-3.1,4.8-3.3-1.6-1.8-3.2,0-4.7-1.4-.4-1.5-.7-3.6-2.5-4.1-10.9-3.2-8.8-9.6-9-9.9-1.7-2.1-3-.9-4-1.6-.4-.3-1-1.4-.4-1.7,1-.4,1.2,1.2,3.3,1.7.5-1.4-1.5-4.4-3.2-4.1-4.4.8-7.4,3.6-11.1,5.5-.7.3-1.4-2-.8-2.1,3.3-.5,5.7-2.6,8.4-4.5.8-.6,3.8.4,3.9-1.2,0-1.3-1.4-3.8-2.7-4.4l-5.4-2.4c-4.5-2-8.5-4.1-11.2-8.7-2.7,2.6-12.2,2.4-10.9,5,.7,1.5,1.5,3.3,2.6,4.4,1.1,1.1,3.4-.6,4.8,0,1.8.8,2.8,3.9,2.2,5.4-1-.5-1.3-.8-1.5-1.1-.4-.5-1.2-.2-1.4.3-.5,1.2,3.8,3.5-.6,13.2,2.1,8.4,6.9,4.6,8.9,7.5,5.3,7.7,6.9,3.9,19.8,5.5,3.5.4,6.6-1.1,9.7-.4-.3.7-.2,1.2-.3,1.4-.4.5,1,1.9,1.7,1.2h0Z"/>
            <path class="st1" d="M438,589.2c1.7.6,3.8,1.2,4.7-.6-1-1.1-2.4-.5-3.1-1.7l4.6-1.2c-.5-.9-.6-1.3-1-1.7s0-.7.4-.8c1.2-.5,1.6,1.1,2.6,2.1.5.5,2.3.7,2.3-.5s-2-1-2.8-1.7c2.1-2.2,4.8-4.1,6.4-7.1l3.4-6.5c1.3-2.4-3.8-3.9-5.8-3.9-2.2,0-3.6,1-5.8.8-2.8-2.7-6-5.6-10-5.9-3.7,8.3-2,9.2-10.1,11.5-3.5,13.3,2.2,9.2-.4,21.4,3.7,3.8,8.8.9,10.6-2-.9-.4-1.7-.3-1.8-.6,0-.4.4-1,.9-1.3l3.8-2.4c1.2,1.8-1.2,1.7-2.2,3,1.3,1.4,1.9-1,3.2-1.1h0Z"/>
          </g>
          <path class="st1" d="M305.2,363l5.8,1.2c-1,2.2-3.5,2.2-6,1.7-1.5,1.8-1.8,5.2-3.6,6.5-1.6.8-3.5.6-4.1,3.2-1.8-2.8-3.4-4.8-4.7-7.3-1.2-2.3-1-5.3-3.3-6.9-.7,1,5.8,14.6,5.2,14.1.7.8,2.2.6,3.5.6-.4.8-1.2,1-1.3,1.7-.5,2.6,7.8,3,7.4,2.9,1.9.3,3.3,3.2,5.3,2.9,1-.1,2.1-1.3,3.1-1.6-.2-.7-.9-.6-1-.8-.2-.3-.3-1.3,0-1.3,1.5,0,2.7,1.1,3.3.5,1-.9,2.4-2.3,2.6-3.8.9.3.7,1.5,1.5,1.9.4,0,.7-.9,1-.8.2.1-.6,4.4,9.5-1.3,1.4-.8-2.2-2.3-1.8-3.6,1-2.7,3.3,2.5,7.5-1.8,4.9-5-6.4-11.4-7.5-14.6-1-3-4.1-5.8-6.3-7.9-1.5-1.5-2-2.3-4.3-1.8-1.7.4-2.6.6-3.1,2.1-.6,1.7,0,2.8,1.2,4-1.1.3-1.6.3-2.2.4-.8.2-1.2.8-.9,1.6.1.6.8,1.6,1.7,1.2,1.2-.6,1.7-1.7,3.1-2.3,1.5,4-3.3,2.6-3.8,6.2-.2,1.5.6,2.5,2.3,3.5-.6.9-1.8,1-1.7,2.3,1,.3,1-.8,1.7-1,.8.4,1.4.9,2,1.2,1,.4,6-2.8,4.9-.5l-1.2,2.5c-.4.9,1.5,1.3,1.7,2.1.3,2,.8,3.5,3.3,4.3-2.3,2.1-5.4,1-8.1.9-.5,1.1-.7,1.7-1.6,1.3-1-.4-1.9-.5-1.3-1.7.2-.6,1.5-.6,2.2-.9,1.3-1.1,1.6-3.3,2.1-4.9-1.5.2-1.6,1.2-2.3,1.4-.9.3-.9-1.3-1.6-1.6-2.3-1-3.8,1.6-5.5,2.5,1.7-2.5,3.9-7.1,1.8-8l-2.3-1c-.4-.2-.4-1,.8-2.3-2.5.5-7.5-6.5-8.9-8.6-1,2,1.4,1.9,1.9,3.1,1.1,3,2.9,5.5,5.7,7.3l-3.6,1.3h0Z"/>
          <path class="st1" d="M341.7,306.6c-.2.6,1.6,3.3,3.5,3.3,1,0,2-.4,2.4-1.4,1-2.9-5.9-10-7.2-10.8-3-1.7-4-3.7-6.6-5.6l-5.4-4.1c-2.5-1.9-5.2-4.6-8.7-4.7.8,3.2,3.6,4.3,4.8,7.1,1.4,3.5,5.1,5.8,6.7,9.1,2.3,4.6,5.9,7.5,11.6,5.9-.3.9-.9.9-1.1,1.3h0Z"/>
          <path class="st1" d="M348.2,259.3c.7-.7.6-1.9-.8-2.8-.7.7-.6,1.9.8,2.8Z"/>
          <g>
            <path class="st1" d="M393.2,230.9c.8.6,1.8-.1,2.2,0,.7.3,1.4,1.2,1.4,2.1,0,2,1.6,2.8,2.3,4.2.5,1,.1,2.3,1.8,2.8-1.7,1.6-9.7-2.6-10,1.1,6.8,5.1.2,1.8,8,6.6,1.4.9,2,1.7,3.4,1.1,1.6-.7,2.5-1.3,2.3-3.4,0-.7.9-1.5.3-2.1-.5-.5-1.5-.7-1.8-1.5-.3-.6,1-.7,1.2-.4l1.4,2c0-2.8.4-5.8-1-8.8,6.7-1.4-1.6-9.9,3.2-13.2-2.9-4.4-8.9-5.2-14.1-3.7.2-1.5,1.7-4.2,0-4.8-2.1-.7-4.5.6-6.6,0,.5,1.6,1.4,1.9,1.6,2.9-1.4.4-2.4.9-2.4,2,0,.8,1.4,1.9,2.3,1.5,2.5-1.3,3.9.8,6.1,1,1.5.2,3.5-2.3,5-1-.5.6-1.4,1-1.4,1.4,0,1.6,5.1,1.2,6.2,2.4-1.4,2-1.8,3.8,0,5.2l-9,.5c.9-1.4.4-2.4.2-3.1-.5-1.4-2-1.1-3.2-1.8-9.1-5.4-7.9,1.1-12.6,0,.5,1.9,2.8,2.3,4.1,1.4,1.1-.8,1.7-2,3.2-1.5,3.1,1.1,2.3,6.5,5.5,3.4-.1,1.1-.5,2.6.7,3.5h0Z"/>
            <path class="st1" d="M476.7,310.8l6.7-8.9c2-2.7,3-5.8,5.8-8.4-.2,5.9-8.4,15.7-9.1,22.1,2.8-2.1,3.5-5.4,5.1-8.4,2.7-5,7.6-13.3,6.6-18.8.7.2.4,1,1.2,1.1,1.5-3.7,3.8-6.6,4.5-10.4,1.4-7,5.1-12.1,3.7-13-.6-.4-2.5-1.7-2.9-.7-.8,2.3-1,4.7-1.9,7l-3.1,8.6c-2.4,6.6-7.1,11.8-10.8,18-9,15.2-25.9,23.9-30.5,31.1-1.1,1.8-3.8,2.4-4.6,4.6,2.6,0,3.8-2.7,5.9-3.8,4.6-2.3,8.3-5.4,12-9,1-1,11.1-10.8,11.5-11.2h0Z"/>
            <path class="st1" d="M386.9,263.6c-.6-1.7,4.2-9.1,6.1-9l2,2.8c1.2,1.7,3.7,2.1,5.8,3.2-.2,0-.5.7-.8.6-.4,0-1.3-1.1-2-1.1-.6,1.4-1,2.7-2.2,4.8,1.5-.5,3.5-.7,5-1.6,1.2-.8,1.3-4,1-5.3-.7-2.7-3.8-2.7-5.7-3.6-.8-.4-1.2-1.5-2-1.7-1.5-.4-4.5,3.1-10.1,4.1-.9.2-1.9-1.1-2.7-.8-.6.2-1.5,1.1-2.3,1.8-6.1-3.1.3,1.3-10.7-.6,3.1,7.8,10.9,6.1,17.2,7.9,1.4,0,1.5-1.6,0-1.6-1.9-.3-3.2-1.1-4.4-1.6,2.8-.9,4.1-.9,5.8,1.8h0Z"/>
            <path class="st1" d="M385.1,170.5c4.8-1.9,8.9-7.1,12.5-3.5-1.5.6-2.5.4-3,1.5,1.4.5,2.1.9,2.9,1.3,1.1.6-.2,2,.3,3.3.4,1.2,2.5.2,3-.9.4-.9.9-2.1.6-3.5l3.3.9c-.9-1.3-2.9-2.1-4.5-1.6-.4.4-.1,1.1-.3,1.2-.4.2-1.7-.8-1.3-1.4,1-1.4,2-2.2,1.6-4.2,0-1.1,1.8-1.9,2.2-3.2.2-.7-1-.9-1.5-.9-1.9.2-1.1,3.5-5.1,4.5-.8-1.5-.3-2.8-.8-4.3-4.6-1.1-3.3,3.3-8.5,5.2,1.8,1.1,3.2-1.7,4.3-.2.8,1-1,1.6-1.6,1.8-1.3.2-2.2-.2-3.2-1.8-1.2,2-1.1,3.7-.9,5.9h0Z"/>
            <path class="st1" d="M383.4,245.1c-6.9,3.2-9.4-.5-9.9,2.3-.4,2.6,6.9,3.1,9,3.2,2.8-.6,5.1-1.5,8.8,1.4.5-3.6-.9-6-.9-9-2.7,0-3.3,1.9-4.3,3.8-.8-.5-1.7-2.1-2.7-1.7h0Z"/>
            <path class="st1" d="M502.1,255c-1.3,2.5-2.2,5.4-2.4,8.8,0,1.1,2.8,1.3,3.3.1,3.4-7.9,5.6-15.9,7.9-24.2.5-1.9.8-3.3,3.3-3.4-1.5-1.1-2.1-1.7-2.5-3.5-1.1,1.1-2.1,1.9-4.2,2.4.2,1.4,1.5,1.4,2.4,2.6-1.5,7-3.2,13.7-6.6,20.1-1.2-.2-.2-1.4-1.1-2.9h0Z"/>
            <path class="st1" d="M391.9,196.2c1.7-.1,1.2-2.7,1.7-4.3,2.8,1.6,4.6,1.2,6.7-.2,5.4-3.6,9.5,2.1,9.4-.9,0-2.4-7.9-.6-12.7-4.2-1.2,1.3-1,2.6-.7,3.9-3.7.6-6.7,2.2-9.1,5.1-1.1-.4-1.5-1.6-2.6-1.3,0,1.1.9,2.9,1.8,2.7,1.8-.4,3.3-.6,5.5-.8h0Z"/>
            <path class="st1" d="M389.2,129.3c0,2.5-.8,4.4-.3,7,1.1-.5.6-1.6,1.1-2.5,3-1,5.5-2.6,8-4.4,1.5.4,2.3,2,4.3,1.2-1.3-1.6-2.5-3.8-3.6-5-2.8-.2-5.1,2.8-5.9,5.8-2.6-.8-4-7.8-7.3-5.3-.9.7-1.4,2.3,0,3.2.8.5,2-.5,3.6,0h0Z"/>
            <path class="st1" d="M407.4,200.9c-2.4-.6-3.7-2.6-5.3-.6,3.9.6,6,1.8,6.6,5.6,1.6-2,1.3-5.4,0-6.8-2-2.1-5.8-1.2-8.3-2.7s-6.1-1.3-7,1.6c.9,1.3,4.1,3.4,5.8,2.7s2.6-2.4,4.3-2.1c1.5.2,3.3.4,3.9,2.2Z"/>
            <path class="st1" d="M396.8,211.6c2.1-1.2,9.3.6,11.5,3.1,2-8.5-5.7-3.9-11.4-10.7-.7,1.1.7,1.9.3,2.2-.7.6-2,.5-2.5,1-.7.8.2,1.8.9,1.9.8.1,1.5-.3,2.7-.6.6-.2.5,1.2.1,1.6-.3.3-1.2,0-1.7,1.6h0Z"/>
            <path class="st1" d="M451.4,350.8c3.3-.8,4.8-3.9,6.7-6.4,2.1-2.7,8.5-9.3,11.2-11.8.7-.6,10.6-12.8,7.6-14.5-3.6,5.1-6.3,10.3-10.2,15-1.9,2.3-4.4,4-6.1,6.7-2.7,4.1-5.9,7.3-9.2,11.1h0Z"/>
            <path class="st1" d="M395.8,136.7c.7-.8,6,4.7,7.2,2,.7-1.5-3-1.7-3.8-3.2-.6-1.1.4-1.9,1.2-3.2-3-.3-6.5.9-8.9,3-1.1,1-.6,3.3-2.3,4.3,2.3.8,4.7-.5,6.6-2.9h0Z"/>
            <path class="st1" d="M388.5,146.6c-.6,0-1-.3-1.1-.3-.3,0-.3,1.2.2,1.3,1.9.1,12,1.3,10.3-2.1-.9.3-1.1,1.5-2.2,1,1.4-.7,1.4-1.9,1.4-2.8,0-1.4-.5-3.4-2.4-2.8-2.7.9-5,2.9-7.1,4.1.6.6,1,.6,1.4.7.3,0,.4.9-.4,1h0Z"/>
            <path class="st1" d="M504.3,230.5c1.2-.8.9-5.6,1.9-9.4l-5-2c.5-.4.8-1,1.2-1.2.8-.3-.9-1.9-1.2-1.6-1.6,1.6-2.6,3.3-5.6,3.8,1.7,2,3.2,2.8,4.8,3.6,1.1,0,1.9-1.7,2.8-2.3,1.3,2.8.5,5.4,1.2,9.1h0Z"/>
            <path class="st1" d="M383.2,101.7c-1.3,1.8,5,5.8,4.6,5.8,1,0,2.5.1,3-1,.9-2,0-5.5-2.4-6.4-1.3-.5-4.5.6-5.3,1.7h0Z"/>
            <path class="st1" d="M510,196.7c.5-.5.7-1,1.1-1.3.9-.6.9,1.5,1.4,1.9,1.4,0,2.7-1.8,3.2-3.6-3.8-.6-5.2-3-5.6-6.6l-1.9,3.3-3.8.5c2.6,1.5,4.4,3,5.7,5.9h0Z"/>
            <path class="st1" d="M518.7,205.6c-4.6,5.7-.6,6.8-4.9,15.7,2.6,1,7.8-23,8.1-25.2-3.3,2.4-2.8,6.4-3.2,9.5Z"/>
            <path class="st1" d="M380.2,116.5c1.5,1.1,2.2,0,2.6-.9.5-1.2-.4-2.1-1-3.4-.4-.7,1.1-1.3,1.8-2.1-1.9-.9-3.8-2.7-6.1-2.6-1.4,0-2.4,1.4-2.5,2.5s.5,2,1.8,2.5c1.1.4,2-1.2,2.9-1.6,2,.4,2.1,3.8.5,5.6h0Z"/>
            <path class="st1" d="M384.3,177.6c4.2.7,7.9-.4,12.6-1.3-2.3-1.6-2.9-2.8-3.3-6.1-2.7,3.5-5,5-9.3,7.4h0Z"/>
            <path class="st1" d="M387.3,157.5l1.6,1.6c.1.1,8.1-2.2,8.5-3.3.5.7.8,1.1,1,1.4.2.5.4.2.7-.2,1.1-1.2-2.9-2-4-5-1.6.6-1.2,2-1,3.7-2-.9-3.6-.3-5,1.3-1-.8-1.4-1.8-2-1.3s-.4,1.1.2,1.8h0Z"/>
            <path class="st1" d="M426.8,118.3c6.8,2.3,13.4,8.3,15.4,6-5.2-3.1-10.3-5.8-16-8.6-.9-.4-1.3.9-1.3,1.3,0,1,.9.9,1.9,1.2h0Z"/>
            <path class="st1" d="M478.2,150c2.9,3.1,6.8,1.7,10.2.9,2.3-.5,4.6.3,6.7-1.7-2.2-1.5-3.7-2.8-5.5-4.4,0,2.4,2.1,3.2,3.6,4.1-5,1.3-9.4,1.2-15,1.1h0Z"/>
            <path class="st1" d="M390.6,235.8c.9-1.4,3.2.3,4.7-1.4-1.6-.4-4.4-1.3-6.2-.6-.8.3-1.2,3.1-2.5,2-.6-.9,1-1.7,1.5-2.4.6-.8-.4-1.9-1.1-2.1-3.3-1.1-3.1,2.7-7.4,5.3,1.9,1.6,4.2.3,6,.4.7.1,1.5,1.5,2.2,1.5,1.5,0,1.9-1.1,2.9-2.7h0Z"/>
            <path class="st1" d="M513.8,227.2c.9.4,1.8-1.2,2.7-.9.9.3,1.5,1,2.7,1.2,3.3.7-4.7-5.2-5.1-6-1.8,1.1-2.9,2.5-4.4,3.7l4.1,2h0Z"/>
            <path class="st1" d="M395.4,181.2c.7,1.7,4.7-.2,9.3,0-.5-1.8-2-3.2-3.4-3.4-3.7-.5-5.8,3.9-6,3.3h0Z"/>
            <path class="st1" d="M403.6,256.2c.5,0,.5-1.3.6-1.5s-.3-.7-.6-.4c-.3.2-.2.8-.6,1.5-.5-1.1-.6-2.8.9-4.3-5.5-.8-2.4-2-7.3-1.6-1,0-.8.9-.5,1.6s1.4.3,2.1.8c1.9,1.3,3,3.9,5.5,3.8Z"/>
            <path class="st1" d="M383.1,187.9c2.9-.1,5-2.9,7.8-1.3.8.5,1.4-.9,1.7-1.6.3-.9.3-2.4-.8-3.4-2.5,2.7-5.8,3.5-8.7,6.2h0Z"/>
            <path class="st1" d="M514.2,171.1c2.4,1.1,4.1,2.7,6.5,3-.8-2.5-3.5-2.3-4.4-4.1-.6-1.4.8-5.8-1.1-6-2.5-.2,1.5,3-1,7.1h0Z"/>
            <path class="st1" d="M367.7,116c1,1.3,2.1,2,3.4,1.9,1.3,0,2.8-1,3.2-2.2-1.4-.7-2.3-1.4-3.6-1.8-1.5-.4-2.6.7-3,2.1h0Z"/>
            <path class="st1" d="M511.2,174c-.1,0-2.1,10.3-1.1,11.4.4-.8,4.5-13.7,1.1-11.4Z"/>
            <path class="st1" d="M382.3,206.2c5.1,1.3,3.2,3,4.8,1.1.5-.6-.4-1.1-1.2-1.7.6-1.5,2.5-1.3,3.8-3-1.4-.9-3.7-.4-4.9.7-.3.3.2,1.3.2,1.6,0,.5-.8.6-2.6,1.2Z"/>
            <path class="st1" d="M361.5,145l3.1,3.8c.8-2.4-.1-4.4-.7-6.6-.2-.8-1.8.1-2.3.3-.6.3-1.1,1.3-.2,2.5h0Z"/>
            <path class="st1" d="M434.9,362c4.5-.2,9.4-2,13.1-6l-13.1,6Z"/>
            <path class="st1" d="M360.4,153.5c-.6.3-.9,4.2.8,4.7,1.5.4,2.4-.6,2.6-1.5.3-1.8-.2-2.7-2.1-2.7-.5,0-1-.6-1.3-.5h0Z"/>
            <path class="st1" d="M357.4,166.5c-.3,1.7-.8,3.5.8,3.6,1.2,0,2.8.4,3.2-1.3-2.1-.7-2.2-2.5-2.3-4.3,0-.4-1.3-.3-1.3.2l-.3,1.8h0Z"/>
            <path class="st1" d="M349.3,183.3c-.8.8,1.1,1.7,1.9,1.9.9.3,2.5-.2,2.8-1.3.2-.8,0-2.6-.8-2.5-1.2.1-2.9.8-3.9,1.8h0Z"/>
            <path class="st1" d="M407.8,86.9c2.7-1.7,4.1,4.6,6.5,3-2-2.5-4-4.2-4.9-7l-1.5,4.1Z"/>
            <path class="st1" d="M429.2,340.1c-3.9,3.1,16.7-1.9,13.6-3.1-4.7,1.4-8.9,3-13.6,3.1Z"/>
            <path class="st1" d="M357.2,133.1c-.2,1.1,2.4,1.6,3,1.1.5-1.7-.6-3.8.2-6.4-.7,1.7-2.8,2.8-3.2,5.3Z"/>
            <path class="st1" d="M391.4,123.7c.8.2,2.1-.4,2.2-.9.2-.8,0-2-.6-3.3-.4-1.1-2.3.3-2.5,1.2s-.3,2.7.9,3h0Z"/>
            <path class="st1" d="M399.7,298.7c-2.1-3.7-5.4-6.3-8.8-9.2,2.1,3.8,5.2,6.4,8.8,9.2Z"/>
            <path class="st1" d="M391.3,204.8c.9,1.3,2,.6,2.5-.6.3-.6,1.3-1.6-.1-2.2-1-.4-2-.8-3-.3-.7.3-.3,1.7.6,3h0Z"/>
            <path class="st1" d="M407.4,94c-.7-.7-1.8-.9-1.9-1.5-.1-.8.9-1.6.5-2.6-.4-1-2.1.5-2.5,1.1-.7,1,.3,2.1.9,2.7.9.9,2.5,1.3,3,.3h0Z"/>
            <path class="st1" d="M511.2,198c0,1.8,1.6,5.1,2.5,5.5.4.2,1.8-.3,1.6-.7-1-2.1-1.7-4.2-4.1-4.8h0Z"/>
            <path class="st1" d="M353.7,176.1c-.8.9.8,1.8,1.5,2.4,1.1-.7,2-1.8,2.3-3.4-1-.3-2.7-.4-3.8.9h0Z"/>
            <path class="st1" d="M408.2,312c-1.6-4.5-3.9-8.4-7.7-11.8,2,4.3,4.7,7.9,7.7,11.8Z"/>
            <path class="st1" d="M415.3,359.5c-1.7-1.2-4,3.4,8.1,1.8-2.9-.8-5.7,0-8.1-1.8Z"/>
            <path class="st1" d="M410.8,193.8c-.4-2.9-2.8.7-7-2.1.7,2.8,4.2,3.6,7,2.1Z"/>
            <path class="st1" d="M418.5,117.2c-.2,1.8.7,3.2,1.1,4.7.9-1,1.1-2.2,1.1-3s-1.3-2.1-2.2-1.7h0Z"/>
            <path class="st1" d="M415.9,98.4c-.6,1.9,2.7,2.9,3.8,2.4.4-1.9-3.3-4-3.8-2.4Z"/>
            <path class="st1" d="M419.7,341.8c0,.5,9.4.9,8.7-.8-.4-.9-6.2.7-8.7.8Z"/>
            <path class="st1" d="M473.5,141.2c.9,2,1.9,3.7,2.8,3.2,1.1-.5.3-2.5-.5-3.1-.6-.4-1.9-1.6-2.3-.2h0Z"/>
            <path class="st1" d="M490.4,241.3c2.5-1.9,3.6-4.5,4.1-7.3-2,2.3-3.2,4.8-4.1,7.3Z"/>
            <path class="st1" d="M418.3,129.9c.7.4,1.2.7,1.8.7.4,0,.8-.5.8-1.2,0-.8-1.9-2.2-2.8-1.7-.7.4-.8,1.6.2,2.2Z"/>
            <path class="st1" d="M506.1,172.8c-.6-1.1-1.6-.8-2.1-.2-.4.4-.6,1.1-.3,1.8.2.5.9.9,1.4.6.6-.2,1.7-1.1,1-2.2Z"/>
            <path class="st1" d="M403,112c1.2.9,2.8.7,2.9-.1.2-1.6-.8-1.5-1.5-1.6-.9-.2-2,1.4-1.4,1.8Z"/>
            <path class="st1" d="M386.7,290.6c-1.9-.6-2.8-1.5-4.5-2.6-.4,1.4.2,2.4,1,2.7,1.2.5,2.8.8,3.5-.1h0Z"/>
            <path class="st1" d="M413.3,313.1c1.7,1.8,3.9.3,5.2-1-2-.3-3.4.1-5.2,1Z"/>
            <path class="st1" d="M483.4,254.6c2.1-1.4,2.7-3.1,3.2-4.9-2.4,1-2.7,2.8-3.2,4.9Z"/>
            <path class="st1" d="M401.4,145.6c-.2-1.1-1.5-.9-2-.7-.4.1-1.2.9-.7,1.5.3.4,1.1.7,1.8.5.5-.2,1.1-.3.9-1.2Z"/>
            <path class="st1" d="M403.1,159.7c2.1.3,3.5.5,5,1.8.4-1.7-.9-2.3-2-2.6-.8-.2-2.2.1-3,.8Z"/>
            <path class="st1" d="M399.6,150.6c.2,1,1.1,1.6,1.9,1.4.3-1.7,1.4-2.1,2.4-2.6-1.6-.7-2.6,0-4.4,1.1h0Z"/>
            <path class="st1" d="M453,292.2c2.9.5,4.1-2,4.8-3.5l-4.8,3.5Z"/>
            <path class="st1" d="M413.2,100.8c1-.6.1-3.4-1.1-3.3-1,.1-1.2,1.2-.7,1.5s.7.8,1.8,1.8h0Z"/>
            <path class="st1" d="M393.1,188.4c.6.4.9,1,1.1.9.5-.4.8-.6.9-.9.2-.9-.4-1.2-1.1-1.3-.4,0-.7,0-1.1,0-.5,0-.6.7.2,1.3h0Z"/>
            <path class="st1" d="M410.9,182.9c-.6-1.3-1.6-2.7-3.9-3.6.5,1.5,1.2,2.6,3.9,3.6Z"/>
            <path class="st1" d="M404.7,133.3c.3.8,3-.5,2.7-1.2-.6-1.7-3.2,0-2.7,1.2Z"/>
            <path class="st1" d="M463.5,282.3c1.7-.2,2.4-1.3,2.2-2.7-1.5.2-2.1,1.4-2.2,2.7Z"/>
            <path class="st1" d="M429.6,362.6c1.6.8,3.1-.5,4.6-.7-1.5-.4-3.2-1.2-4.6.7Z"/>
            <path class="st1" d="M386.6,116c-.6-1.1-1.6-.9-2-.2-.2.4,0,.9.6,1.4.5.4,2,0,1.4-1.2Z"/>
            <path class="st1" d="M447.5,123.7c-.2-.8-.9-.3-1.1,0-.4.3-.8.8-.6,1.4.2.4.6.4.9.3.4,0,1-.5.7-1.6h0Z"/>
            <path class="st1" d="M503.6,252.8c.7-1.2,1.6-2.6.9-3.4-1.5.3-1.7,2.4-.9,3.4Z"/>
            <path class="st1" d="M448,296.7c1.4,0,2.8-1.2,2.6-2.9-1.1.7-1.9,1.3-2.6,2.9Z"/>
            <path class="st1" d="M510.9,229.8c.7-.7.6-1.9-.8-2.8-.7.7-.6,1.9.8,2.8Z"/>
            <path class="st1" d="M471.8,272.5c1.8-.6,1.9-1.9,1.8-3.2-1.2.7-1.7,1.6-1.8,3.2Z"/>
            <path class="st1" d="M459,287.3c.9-.6,1.3-1.2,1.8-1.8-1-.4-1.9-.4-2.2.1-.2.5,0,1.9.4,1.7h0Z"/>
            <path class="st1" d="M521.7,195.3c.3-1.3,1.1-1.7,1-2.8-1.4-.4-1.6.2-1.5,1,.1.7-.3,1.5.5,1.8h0Z"/>
            <path class="st1" d="M477.8,145.8c.8.6,1.1,1,1.4,1.2.2.2.9.2,1-.3,0-.4-1-.8-1.2-1.3-.8-.9-2-.5-1.2.5h0Z"/>
            <path class="st1" d="M392.8,298.9c.6-1.2.6-2.9-1-3.6-.4,1.3.5,1.7,1,3.6Z"/>
            <path class="st1" d="M486.7,247.6c1,.7,1.4,0,1.8-.5.5-.6.7-1.6-.1-2.2-.2,1.3-.8,1.6-1.7,2.7Z"/>
            <path class="st1" d="M495.8,227.4c.4-.3.6-1.3,1.3-2.1-.8-.9-1.1,0-1.4.2-.4.4-.6,1.7.1,1.8h0Z"/>
            <path class="st1" d="M496.6,166.6c-.3-.4-.9-.1-1.6-.1-.5,0-.4.5,0,.7.5.4.5.6.8.7.6.2,1.5-.5.8-1.3Z"/>
            <path class="st1" d="M391,293.8c-.4-1-1.2-1.4-2-2.1-.5,1.2,0,2.3,2,2.1Z"/>
            <path class="st1" d="M443,300.4c1.1,0,1.8-.8,2.7-1.1-1.2-.7-2.4-.6-2.7,1.1Z"/>
            <path class="st1" d="M387,123.5c0-.4-1.2-.2-1.5-.2s-.5.5-.4,1.1c.1.4.6.5.9.4.2-.1.9-.3.9-1.2Z"/>
            <path class="st1" d="M437.2,304.6c1.2.3,2.3-.6,1.9-2.1-.8.5-1.4.8-1.9,2.1Z"/>
            <path class="st1" d="M407.6,115.7c-.6-.7-1.2-.5-1.5,0-.3.5,0,1.2,1,1.1.5,0,1.6,0,.5-1.2h0Z"/>
            <path class="st1" d="M494.5,232.1c.4,1,1,.1,1.3-.2.5-.6.6-1.9-.2-2.1-.3.5-.2,1.2-1.1,2.3h0Z"/>
            <path class="st1" d="M458.7,122.8l10.2,7.6c1.9,1.4,25,14.3,28.6,16.7,0,.7-1.1,1.5-1.3,1.9-.4.9,1.4,1.4,1.7,2.1,6.5,13.5,14.3,13.4,13.6,12.7.5.6,0,1.6.8,2.7,2.1-4.7,3.1-10,.3-15.2.6-1.7-1.4-1.7-1.5-.1,1,4,1.4,7.4.4,10.7-2.4-2-5-2.3-6.4-4.3.7-2.6,4-3.5,4-6.8-2.4.7-2.5,3.5-4.5,4.8-2.1-1.1-1.9-3.4-2-5.6,0-1.2-2.1-1.2-1.9-2.7h6.4c-2.6-2.8-9.1-.2-10.6-3.3,5.5.3,11,1.9,16.5,3.5,4.9,1.4,5.9,5.8,7.1,9.8,1.1,3.4,6.3,4.8,8.9,6.5,3.2,2.2,10.5,6.6,12.3,2.1.4-1,.2-2.3-.6-3.3-5.1-6.8-4.3-15.7-7.6-22.7,1.3,13.5,1.7,3-1.3,14.5-7.6-2.3-15.2-12.4-11.1-20.2.6-1.1,2-1.6,2.7-1.9,3.4-1.3,3.3,4.2,6.7,3.9-1.2-2.2-2.6-4.1-4.5-5.6l-14.9-11.8c-3-2.4-5.7-4.7-9.1-6.7-7.8-4.8-7.9-10.3-24.8-19.8-2.3-1.3-4.4-2.8-6.8-4.2l-22.9-12.9c-2.6-1.5-4.8.2-6.4,2-.8.9-2.6,1.1-2.8,2.6-.5,2.9-2,5.3-4,7.4-2.1,2.2-1.5,4.8-1.4,7.6l.4,6.4c5.2-5,3.8,1.5,9.3-3,.1,0,5.6-2.9,8.5-1.9,1,.3,1.1,1.8,1.8,3.4,1.2-2.7,1.9-6.5,5.1-8.1s9.2-1,11.4,1.8c1.1,1.4,4,7.3,3.6,7.8-2.5,1.9-2.6,5.4-5.7,6.2-2,.6-5.2,1.6-7.3,1.1-3.5-.7-5.4-4.4-6.5-7.2-1.1,5.5,3.7,7.4,7.1,9.8,2.4,1.7,4,1.3,7.4,1.1-4.4,3.1-9.3.4-13.4-3.5-3.5,8.8,13.8,7.7,17.2,21.4-5.4-2.1-10.8-8.6-16.6-12.2l-9.3-5.8c-9.4-5.9-4.3-4.2-8.6-7.6-.5-.4-1.9.8-2.5.3-2.5-1.7-3.6-4.8-5.8-6.7-2.6-2.3-4.7,3.7-12.7-7.6-.8.8-1,1.6-.8,2.2.3,1.1,6.8,6,7.5,6.2,1.5.4,3.4-1.1,5.3-.1,1.8.9,1.7,2.7,2.9,4.2,4.3,5,21,15,27.8,20.1h0Z"/>
            <path class="st1" d="M493.4,167.9c.8-.8-1.7-2.5-2.8-2.6-3.3-.3-2.9-2.8-4.4-3.8-1-.6-2.5.9-3.4.8-1.6-.1-.1-4.1-2.8-3.9-3.6.3-.8,4.1-6.8,6.6-1,.4-2.1.9-3,.2-.8-.6-.8-1.7-.7-2.7.3-2.3,7.1-2,8.5-4.6-1.7-1.1-3-1.3-4.2-2.3-2.4-2.1-3.7,2-5.2,1.4-1.8-.7,0-4.1-1.4-6.2-1-1.5-1.4-3.8-1.9-5.2-1.6-.5-3.8-.6-3.7-3.3-1.8-.4-3,0-5,.1-.5-2.9-2.8-3.4-4.8-4.7-3.1-2-5.1-5.6-8.1-8-1.2,1.4,1.8,2.1,0,3.6-.8-2.5-2.7-3.4-4.7-5l-4.3-3.5c-2.3-1.9-5.5-2.4-8.6-4.3-1.8,6-1.4,11.7-.9,17.6,0,1.1-1.4,3-.6,4s.9,2.8,1.5,3.4c4.1,4.4-.2,2.2,4.5,11.2.9-.4.8-1.2,1.3-1.3.5-.1.8.8,1,1.3l.8,1.8c.2.5,1.1,0,1.9.2,2.4.4,4.2,2.8,6.6,3,4.3.4,8.6.2,12.1,3.3-.5,1.6-2.2.2-3.1,1.9,4.8,1.5,10.3.4,14.9-.8-.1-.9-.4-1.7-.4-2,0-.5.5-.6,1-.8.5-.1,1.1.4,1.3,1.2,1.2,6.9,9.5,2.7,12.2,5.6-1.4,2.5.8,4.9,3.7,5.4,1.3.2,1.3-3.9-.3-4.5s-2.9-1.3-2.6-3.1c2.5,1.9,4.9,1.5,7.5.9,1.4-.3,3.4.8,5-1.1h0Z"/>
            <path class="st1" d="M431.2,81.1c-1.1-.8-3.4-.8-3.3-2.4,0-1,1.6-.8,2.1-.6.6.2,1.2,1.8,2.2,2.2,2-1.4,3.3-4.5,4.7-6.4-1.1-.4-2.1,0-2.7-.8,1.2-1,2.7-.7,3.8-.3-.5,3-10.7,15.6-6.9,16.8,1.7-5.4,4.6-10.5,8.7-14.6,2.4-2.4,4.8-1.8,8.4-.4-3.8-4.9-2.1-16.8.6-21-3.7-1.2-3.8,7.9-6.3,10.5-1.7,1.8-3.6,3.9-4.8,6.1l-9.8.3c-1-12.1-.6-17.9-7.1-28.1-.4-.6-1.1-.8-1.4-.9-.5,0-1.5.6-1.5,1.4.1,5.2-2.9,18.9-.5,23.2l4.8,8.7-2.2,2.6c-.9,1,0,2.3.8,4.5-3.6-1-3.4,2.1-4.9,0-1.1-1.6,3.9.2,2.3-7.3-2.8.4-6.9,4.7-4.8,7.5,2,2.6,6.3,2.8,7.8,5.9-.6,0-2.2-.8-2.3.2,0,1.3-.3,3.3.5,4.5,5.7,1.3,4.8-2.3,9-5.9-.2-.8-1-1.3-1-2.1,1-.3,2.2-.2,2.9-.7.6-.5,1.5-2.2,1-2.8h0Z"/>
            <path class="st1" d="M401.1,119.6c-2.4-1.4-2.4-3.4-2.5-5.8-1.6,0-2.2,1.9-3.1,1.1-.6-.6-1.7-2.1-.7-2.7,2.7-1.6,6.3,1.4,6.9-.1.7-2-2.4-2.5-2.2-3.6.1-1.1.4-2.1,1-2.3,3.1-1,3.3,2,5.5,2.6,1.8.5,3.2-2.7,5.5-2.5,1,0,1.4,1.4,2.6,2,.2-4.2-4.4-3.9-7-4-1.1-3-1.6-7.2-4.2-10-.4-.4.5-1.9-.6-2.1,1,.2-4.7,2-4.1,1.4-.9.8-.9,2.3-.3,3.4.7,1.3.2,2.7-.9.7l-4.8,3.2c-3,2,3.6,4.1,1.8,5.4s-2.5,2.8-3.7,4.4c-1.4,1.9-2.3,2.3-1.3,4.3,1.3,2.5,2.3,1.5,4.7,1.5,1.6,0,1.5,3.4,2.1,5,1.7,0,3.1-.5,5.2-1.7h0Z"/>
          </g>
        </g>
        <path class="st1" d="M227,423.2c-2,4-3.9,9-2,13.5,2-4.9,2.5-9.5,4-14.1,4.2-13.3,14.4-17.6,13.3-20.1-1.4-3.1-8.3,3.5-9.6,4.5-3.5,2.8-7.6,6.9-6.8,12,.1,1,2.4,1.7,1.2,4.2h0Z"/>
        <path class="st1" d="M238,379.8c-2.6-5.2-5.3,20.3-2.8,21.3,1.7.7.9-3.3,3.7-2.5-1.9-4.1,3.5-5.1,1.8-12.5-.6-2.6,1.8-5,.2-7.3-1.2,1.9.3,4-1.7,5.3-1.3-1.3-.5-3-1.1-4.3h0Z"/>
        <g>
          <path class="st1" d="M226.2,279.6c3.2-2.4,3.4.4,9.5-2.1l-1.7-1.7c.9-1,2-.6,3.5-.3.2-1.4-1-2.4-2.4-2.9.6-2.9,7.7.5,10.2-3.8-2.2,0-3.2.3-4.2-.5-1.3-1.1.6-2.2.7-3.4.3-2.8.2-5.9,4.2-6.3-.7,2.9-1.4,5.5-3.5,8,3,1.9,6.1-1.7,8.4-.4,3.6-5.2.1-6,3.9-9.4-1.1-.7-1.6.5-3.2.3l3.2-4.7c-4.4-2-7.9,3.9-13.8,1.2-2.2-1-7.1.4-6.2-1.2.7-1.2,7.6,2.8,10-2.9,1,1,2,.6,3.2,1.4-1.9,1-4,.8-5.4,2.7,2.8,0,5.6-1.5,7.8-2.4-.6-5.1,5.8-2.9,6.6-7.8-3.2,1.2-6.1.4-9.2.4s-8.3,1.7-12.4,2.2c.6-2.6,3.7-2.4,4.1-4.3s2.1-.9,3.9-1.3c-.4-1.3-1.6-1.2-2.6-2.2,2.3-3.9,8.3-5.4,5.6-8.5-6.7,2.5-13.7,2.6-20.9,2.2-2.7-.1-4.1-.9-6-2.7-4.2-4.1-10.2-6.5-14.1-10.9-2.9-3.3-5.4-5.5-9.3-7.6-3.5-1.9-7-4.5-11.3-5.2-2.7-.5-9.6-1.1-9.9,2.8-.6,6.9,5.4,13.2,10.4,17l8.7,6.6c7.6,5.7,12.6,13.4,13.7,23s2.2,19.8,4,29.6c.8,4.3,2.6,7.6,4.7,11.2,7.2,12.3,15.6,24.3,31.6,20.7,4-.9,8.6-1.3,10.7-6,.2-.4-.8-1.1-1-1-4.1,1.7-2,2.6-9.3,4.5-.6.2-.9,1.5-1.6,1.6,1.7-.2-11.5-2.3-11.1-2.4.6-.6,1.1-.9.9-1.2-.6-1.6-1.3.7-2.9.1-.6-.2,0-1.4-.4-1.9-1-.5-3.5.9-3.5-1.1,4.3-2.5,7.4,3.2,10.3-1.8,1.4.8.9,1.9,1.5,3.1,2.3-.3,4.4,0,5.3,2.3,1.4-1.3,1.1-2.4,1.7-3.7,2.3-.7,4.9-2.9,4.9-5.1-1-.7-2.7-1-2.1-2,.7-1,4.7-1.4,4.1,0-.1.3-.9.6-1,1.9,1.7-.2,3.6-1.3,5.5-2.3-2-2.2-4-1.6-5.6-2.8,1.2-.8,1.6-1.7,2-2.6.4-1,.4-2.1-1.5-2.7.7-1.1,1.7-.2,2.7.1.2-1.6-1.1-2.4-1.5-3.8,1.1-1.3,2.1-2.6,1.7-3.9-.6-1.9-2.3-1.8-3.8-2.4-2.1-.9-2.6-3.7-3.5-5.6-.7-1.4-3.1-2.8-3.7-1.2-.5,1.3.8,2.8.2,3.6-.8,1-2.3,1.5-3.7,1.1-3.1-.9-2.1,3.8-5.8,2.7-1.8-.5-2.5-1.3-1.6-3.6l-9.3-.6h0Z"/>
          <g>
            <path class="st1" d="M203.7,229c1.6.8,3.4-3.3,3.3-2.6.2-1-.7-.6-.8-3.5,0-1.2-1.9.8-2.4,1.2-.3-1.6.2-2.7-1.1-3-1-.2-3-.9-3.5.6-.8,2.6,2.5,4.1,4.1,5.5.3.7,0,1.6.5,1.8h0Z"/>
            <path class="st1" d="M190.7,216.8c-.1,1.9,1.5,2.1,1.7.3,0-1.1-1.1-1.5-1.7-.3Z"/>
          </g>
        </g>
        <path class="st1" d="M66.1,321.5c-.2.1-2.4,7.8.6,10.1-.1.9-1.3,1.1-2.1,1.9,1.2,1.1,2.3,1.5,3,2.6-2.2.7-3.1,6.4-2.6,7.6.2.4,1,.1,1.7-.6.4-.4-.7-.9.6-1.7.8,2.7,1.4,5.6,0,6.9-1.1.9-1.3-4.8-2.1-4.1-.8,3.2-.3,6.4-.6,9.6.8.1,1.2-.1,1.4.2.5.6.4,1.6.3,2.9.9.7,1.5-1.1,3-.2-.6.6-3.3,2-2.1,3.7,1.8,2.5-1.1,3.6-1.7,4.8-1.8,3.8-1.1,9-5.6,14.3-.6.7.6,1.6.5,2.4-.3,2-2.8,2.9-4.5,4.1,1.7,1.6,3.7.8,5.2,2.5-1.9-.2-3.2,0-4.8,1.5-1.3-1.3.4-3.9-1.4-5-.4-.3-1,0-1.9.6,1.9-5.5,7.3-2,6.6-4.8-5.3-.8-9.1,3.5-8.9,7.8,2-1.4,2.2-.1,2.7.7,2.1,3.3-3.2,2.8-.9,7.2,1.5-1.7,3.2-2.3,4.2-4l3,3.6c-1,.7-1.8.1-2,.5-.5.9.9,1.7.9,2.1.3,2.5-.2,4.9,2.1,6.8.6-.4.7-1.8,1.2-1.8,3.3,0,5.6-1.5,7.6-4,.6-.7,2.1-.6,2.1-2.2,0-.7.5-1.5,1.1-2,.7-.5,1.5.7,2.4.9,1.1.2,1.6-1.7,3-1.7,1.8,0,5.4,1.4,6.5-.6,9.3-17.1-3.5-9.9-5.2-43.5-.5-9.9-.5-19.4.6-29.1l.8-7c.1-1.2,2.8-2.7,1.2-4.2-1.1.9-2.6-.8-3.6-.8-2.3-.2-5.2.1-6.1-3.1-.8-.3-1.8.5-2.4-.6.9-.8,2.9-.6,2.5-1.7-.4-1-1.3-1.8-1-2.7.5-1.5,1.7-1.1,3.1-.9,1.7.3,3.5-2,5.2-1.4,2.1.8,2.7,3.2,4.9,4.8,2.1-2.7,5-5,6.4-8.2,1-2.2,1.1-5.5,4-6,0,1.6,1.3,2.8,2.8,3.8,1.1.8-.7,2.3-1.5,2.9-1.2.9-1.9.5-3.6-1.5l-4.1,6.6c13.1,7,10,3.2,12.1,3.4,1.6,0,3,3.1,4.7,1.6,1.4-1.2-1.4-4.8,1.5-4.1.8.2-.1,1,0,1.9.2,1.5,1.9,1.7,3.9,2.7-.4-2,.8-2.8,1.5-4.5.4-1-2-1.4-2.4-2.3-.2-.4.8-.9,1-1.2.4-.6-1.2-1.2-1.1-1.8.3-1.1,1.3-2.2.4-3.2l4-6.2c-1.6-.5-2.3.8-3.8.9,0-.9,1.3-1.2,1.2-2.1-.3-2-2-2.9-3.4-4.2,2.3.1,4.2.9,5.2-1.8-1.2-.8-2.2.3-3.3.6,0-2.2,2.1-3.6,4-3.5,1.1,1.2,1,2.6,3,3.4.2-3.6,1.9-6.6,3.6-9,0-7.5-2.8-2.6-3-7.4,0-1-1.2-2.9.3-3.3,1.3-.3,2.4,1.5,4.2,1.6,0-2.3-2.3-2.4-4.2-4.3,1.6-.7,3.1-2.7,4.6-2.9,4.4.7,9-1.7,12.8-2.8,1.3,0,3.9,2.8,4.9.3.8-2-2.4-2.8-3.7-3.6-2.8-1.8-1.6-6.3.6-7.6.4,2.4,2.4,5.6,3.1,4.8l1.4-1.8c.4-.5.9,1.1,1.5,2.2,1.2-.8,1.6-2.3,2.7-3.8-1.8-.9-3.4-.5-5.3-.6.3-1.1.6-1.9,0-2.4-2.8-2.1-5,.4-7.4.4-1.9,0-9.6-4.2-12.4-.8l-5.3-.4c-2.1-.1-4.4,1.3-6.4.1-.9-.6-2-.6-2.7,0-.5.4-1.2,1.8-.5,2.2,3.4,1.9,6.6-1.2,7.1,1.8.2.8-3.8,1-6.3,3.3,1.2,2.2,3.3,2.9,4.7,4.5.4,3.2-2,5.3-4.1,7.4l6.4,3.4c-15.1,2.9-8.3,9.6-15.6,6.9.6-2.1,3.1-1.7,3.9-3.2,1.1-2.3,2-4.3,4.4-6-2.4-.3-3.4,2.1-5.2,3.9-1.8-2.9,7.3-7,7.8-9.2-3.4-.3-5.9,2-8.3,4-1.4-.1-4.7-4.8-6.2-3.6-.6.5-1.1,1.5-.6,2.3l3,4.7c-3.3,4.7-.7,7-3.9,8.1.7.4,1,.5,1.3.6.6.2.4.7.2,1.1s-.8,1-1.2.4l-4.3-6.9c-2.7,1.4-4,0-5.5-1.5-1.3-1.2-2.2-2.2-1.3-4.3-4,1.1-16.1,3.3-16.3,7.5-5-1.1-8.9,6.9-11,5.2l6.4-6c4.3-4.1,14.8-12.8,19.8-14.8l23.5-9.4c-.4-1-1.9-1.1-3.1-.6l-23.1,9.4c1.4-1.3,2.6-1.9,3.8-3.9-2.2-1.3-8.2,1.7-12,2.9.7,1.1,1.6,1.7,2.6,2.9-1,.8-1.4,2.5-2.7,3-.7.2-1.7-1.4-2.6-1-1.5.8-2,2.4-4,3-.7-1.4,0-2.6-.3-3.9-1.6-.8-4.8,0-5.1,1.9-.3,2.2.9,4.1,2.9,5.2-1.8,1.1-2.9,2-3.7,3.8-1.3.5-3-.8-4,.3-.7.8,0,2-.2,2.8,0,.8-1.2,1.4-2.2,1.6-.3-1-.5-3.6-1.9-3.7-2.6-.1-5.4,1.8-6.8,3.7.7,2.1,2.2,3.1,3.1,4.7-1,3.4-3.5,5.7-5.5,9.2-.5-1.3-.6-3.5-1.9-4.8-1.9-2-6.2,1-6.7,3.2,2.8,1,4.6,1.9,5.7,4.8.5,1.2,3,1.7,2.4,4.1.9-1.7,2.3-1.6,3.7-2.1,2.2-.9,2.5-2,4-.4,3.4,3.7-2.1,1.4,1.3,10.6,1.2-6.6,1.6-3.7,3.5-5.6,2.4-2.4,4.5-5,7.2-7.2.3-.3-1.2-1.3-.9-1.6,2.9-2.9,3.6-1.5,8.9-4.6,2.8-1.6,3.5,1.7,7,0,.6-.3-.2-2,.4-2.4,1.8-1.3,2.2,1.8,2.6,2.9.7,1.9-1.8,2.9-3.2,3.9-3.6,2.3-6.5,6.4-11,7.4-1.8.4-3.4-.7-5.1,1-2.4,2.4-5.5,4.9-7.1,8,.6,1.6,3.5,1.9,5.2.8.3.7.2,1.1.3,1.5.3.4,1.7.4,1.5,0-.5-1-.4-2.3.4-2,.4.1.3,1.8.7,2.1.3.3.8.3,1.7.7.1.9,0,3.2,1,3.5.9.3,2.1,1.3,3.6.6.2-1.5-1.5-1.8-1-3.1,3.2,1.2,4.4,4.1,6.5,6.1,1.9,1.8,4.9,1.5,7.2,3.3-.5,1.1-1.6,1.9-2.6,2.9-.4-2.4-1.1-3.6-3.5-4-.7,2.2,0,9.2-1.4,9.7-3.4,1.2,2-6-1.5-5.4-1.2.2-.2,1.8-.5,2.6s-1.6.6-2,1h0Z"/>
      </g>
    </g>
  </g>
  <line class="st0" x1="30" y1="628" x2="180" y2="628"/>
  <line class="st0" x1="361.5" y1="628" x2="511.5" y2="628"/>
</svg>